<!--
This file is a duplicate of app/frontend/images/illustration-congratulation-purchase.svg
It's here so that webpacker and rails asset pipeline do not step on each other toes
See https://gitlab.com/gitlab-org/customers-gitlab-com/issues/1133 for consolidation on this
-->
<svg xmlns="http://www.w3.org/2000/svg" viewBox="0 0 302 222" xmlns:xlink="http://www.w3.org/1999/xlink"><defs><rect id="0" width="127" height="143.3" rx="8.467"/><circle id="2" cx="35" cy="35" r="35"/><mask id="1" width="127" height="143.3" x="0" y="0" fill="#fff"><use xlink:href="#0"/></mask><mask id="3" width="70" height="70" x="0" y="0" fill="#fff"><use xlink:href="#2"/></mask></defs><g fill="none" fill-rule="evenodd"><g transform="translate(48)"><circle cx="111" cy="111" r="111" fill="#f9f9f9"/><circle cx="180" cy="170.54" r="35" fill="#e5e5e5"/><g transform="matrix(.99863-.05234.05234.99863 47.27 42.42)"><rect width="127" height="143.3" y="2.704" fill="#e5e5e5" rx="8.467"/><use fill="#fff" stroke="#eee" stroke-width="8" mask="url(#1)" xlink:href="#0"/><g fill="#6b4fbb"><rect width="49" height="6" x="26.12" y="37.852" opacity=".3" rx="3"/><rect width="61" height="6" x="26.12" y="59.48" rx="3"/><rect width="76" height="6" x="26.12" y="81.11" opacity=".3" rx="3"/><rect width="49" height="6" x="26.12" y="102.74" rx="3"/></g></g><g transform="translate(145 133)"><use fill="#31af64" stroke="#000" stroke-opacity=".05" stroke-width="8" mask="url(#3)" xlink:href="#2"/><path fill="#fff" d="m39.556 38.556h-9c-1.666 0-3 1.343-3 3 0 1.653 1.343 3 3 3h11c.171 0 .338-.014.501-.041.162.027.329.041.499.041 1.653 0 3-1.347 3-3.01v-19.984c0-1.665-1.343-3.01-3-3.01-1.653 0-3 1.347-3 3.01v16.992" transform="matrix(.70711.70711-.70711.70711 33.02-16.606)"/></g></g><g transform="matrix(-1 0 0 1 302 3)"><g fill="#ffce29"><path d="m26.595 55.11l-6.103 1.356c-1.077.239-1.754-.444-1.516-1.516l1.356-6.103-1.356-6.103c-.239-1.077.444-1.754 1.516-1.516l6.103 1.356 6.103-1.356c1.077-.239 1.754.444 1.516 1.516l-1.356 6.103 1.356 6.103c.239 1.077-.444 1.754-1.516 1.516l-6.103-1.356" transform="matrix(.70711-.70711.70711.70711-26.748 33.11)"/><path d="m7.973 12.43l-3.634.807c-1.296.288-2.115-.52-1.825-1.825l.807-3.634-.807-3.634c-.288-1.296.52-2.115 1.825-1.825l3.634.807 3.634-.807c1.296-.288 2.115.52 1.825 1.825l-.807 3.634.807 3.634c.288 1.296-.52 2.115-1.825 1.825l-3.634-.807" opacity=".5" transform="matrix(.70711.70711-.70711.70711 7.835-3.36)"/></g><path fill="#ffe694" d="m266.97 151.43l-3.634.807c-1.296.288-2.115-.52-1.825-1.825l.807-3.634-.807-3.634c-.288-1.296.52-2.115 1.825-1.825l3.634.807 3.634-.807c1.296-.288 2.115.52 1.825 1.825l-.807 3.634.807 3.634c.288 1.296-.52 2.115-1.825 1.825l-3.634-.807" transform="matrix(.70711.70711-.70711.70711 181.98-145.78)"/><path fill="#ffce29" d="m294.14 95.43l-3.634.807c-1.296.288-2.115-.52-1.825-1.825l.807-3.634-.807-3.634c-.288-1.296.52-2.115 1.825-1.825l3.634.807 3.634-.807c1.296-.288 2.115.52 1.825 1.825l-.807 3.634.807 3.634c.288 1.296-.52 2.115-1.825 1.825l-3.634-.807" transform="matrix(.70711.70711-.70711.70711 150.34-181.4)"/></g></g></svg>
