<svg width="40" height="40" fill="none" xmlns="http://www.w3.org/2000/svg"><path d="M19.254 30.734h.445l.124.32.956 2.478h0a1.95 1.95 0 003.073.792h0l4.292-3.602h0a1.95 1.95 0 00.566-2.196l-1.42-3.68-.118-.305.232-.23.725-.721h0c3.382-3.382 5.28-7.678 5.68-12.92a3.875 3.875 0 00-3.568-4.159h0a3.876 3.876 0 00-.434-.009L19.254 30.734zm0 0l-.094.04c-1.536.654-2.985.811-4.421.351l-.243-.078-.205.15a2.563 2.563 0 01-3.326-.255s0 0 0 0L9.11 29.086m10.145 1.648L9.109 29.086m0 0s0 0 0 0m0 0h0m0 0a2.562 2.562 0 01-.087-3.533l.175-.193-.059-.255c-.282-1.216-.173-2.458.269-3.753l.155-.455-.448-.173-2.75-1.062-.18.467.18-.467a1.95 1.95 0 01-.793-3.072l3.602-4.293h0a1.95 1.95 0 012.196-.566l3.52 1.359.309.12.23-.239c.336-.346.68-.696 1.033-1.048 3.41-3.41 7.844-5.224 13.346-5.42L9.11 29.085zM33.06 10.613a3.124 3.124 0 00-3.227-3.361h0c-5.29.189-9.554 1.912-12.842 5.2-3.724 3.724-6.038 6.633-6.886 9.155-.43 1.28-.489 2.475-.155 3.626.332 1.143 1.04 2.199 2.067 3.226.989.989 1.976 1.682 3.047 2 1.083.323 2.2.247 3.413-.208 2.376-.892 5.21-3.281 9.12-7.192 3.265-3.265 5.077-7.398 5.463-12.446zm0 0l-.499-.038m.499.038s0 0 0 0l-.499-.038m0 0a2.625 2.625 0 00-2.71-2.824c-5.183.185-9.32 1.869-12.507 5.055l15.217-2.23zM9.148 19.921l.334.13.23-.275 4.552-5.425.45-.536-.653-.252-2.985-1.152h0a1.2 1.2 0 00-1.35.348h0L6.123 17.05h0a1.2 1.2 0 00-.243 1.07l.484-.124-.484.125a1.2 1.2 0 00.73.82s0 0 0 0l2.537.98zm11.338 10.646v.094l.034.087.98 2.537h0a1.2 1.2 0 001.89.487l4.292-3.601s0 0 0 0a1.2 1.2 0 00.348-1.352h0l-1.152-2.985-.252-.652-.536.45-5.425 4.552-.179.15v.233z" fill="#6E49CB" stroke="#6E49CB"/><path d="M22.986 17.683a1.75 1.75 0 102.475-2.474 1.75 1.75 0 10-2.475 2.474zm-1.238 1.238a3.499 3.499 0 011.136-5.709 3.5 3.5 0 013.815.759 3.5 3.5 0 01-4.95 4.95z" fill="#C2B7E6"/><path fill-rule="evenodd" clip-rule="evenodd" d="M6.59 29.13a.875.875 0 010 1.238l-4.95 4.948A.875.875 0 11.403 34.08l4.95-4.95a.873.873 0 011.237 0zm4.331 4.331a.875.875 0 010 1.237L7.209 38.41a.875.875 0 01-1.238-1.237l3.713-3.712a.875.875 0 011.237 0z" fill="#E0DBF2"/><path fill-rule="evenodd" clip-rule="evenodd" d="M8.755 31.295a.875.875 0 010 1.238L1.95 39.339A.875.875 0 01.712 38.1l6.806-6.805a.875.875 0 011.237 0z" fill="#C2B7E6"/></svg>