<svg width="566" height="213" viewBox="0 0 566 213" fill="none" xmlns="http://www.w3.org/2000/svg">
<path d="M5 0.5H171C173.467 0.5 175.5 2.58386 175.5 5.19512V207.805C175.5 210.416 173.467 212.5 171 212.5H5C2.53259 212.5 0.5 210.416 0.5 207.805V5.19512C0.5 2.58386 2.53259 0.5 5 0.5Z" fill="#F2F2F2" stroke="#DFDFDF"/>
<g filter="url(#filter0_i)">
<path d="M366 0H200C197.239 0 195 2.32594 195 5.19512V207.805C195 210.674 197.239 213 200 213H366C368.761 213 371 210.674 371 207.805V5.19512C371 2.32594 368.761 0 366 0Z" fill="#F2F2F2"/>
</g>
<path d="M200 0.5H366C368.467 0.5 370.5 2.58386 370.5 5.19512V207.805C370.5 210.416 368.467 212.5 366 212.5H200C197.533 212.5 195.5 210.416 195.5 207.805V5.19512C195.5 2.58386 197.533 0.5 200 0.5Z" stroke="#DFDFDF"/>
<path d="M395 0.5H561C563.467 0.5 565.5 2.58386 565.5 5.19512V207.805C565.5 210.416 563.467 212.5 561 212.5H395C392.533 212.5 390.5 210.416 390.5 207.805V5.19512C390.5 2.58386 392.533 0.5 395 0.5Z" fill="#F2F2F2" stroke="#DFDFDF"/>
<rect x="210" y="15.5854" width="40" height="13.5073" rx="6.75366" fill="#D9534F"/>
<path d="M17.7302 20.8262C17.7302 20.3704 17.7769 19.9292 17.8702 19.5025C17.9729 19.0758 18.1315 18.6975 18.3462 18.3679C18.5609 18.0284 18.8409 17.7618 19.1862 17.5678C19.5315 17.3642 19.9515 17.2623 20.4462 17.2623C20.9409 17.2623 21.3609 17.3642 21.7062 17.5678C22.0515 17.7618 22.3315 18.0284 22.5462 18.3679C22.7609 18.6975 22.9149 19.0758 23.0082 19.5025C23.1109 19.9292 23.1622 20.3704 23.1622 20.8262C23.1622 21.2626 23.1109 21.6893 23.0082 22.1063C22.9149 22.5136 22.7609 22.8821 22.5462 23.2118C22.3315 23.5415 22.0515 23.8082 21.7062 24.0118C21.3609 24.2058 20.9409 24.3028 20.4462 24.3028C19.9515 24.3028 19.5315 24.2058 19.1862 24.0118C18.8409 23.8082 18.5609 23.5415 18.3462 23.2118C18.1315 22.8821 17.9729 22.5136 17.8702 22.1063C17.7769 21.6893 17.7302 21.2626 17.7302 20.8262ZM15.5322 20.8262C15.5322 21.5826 15.6442 22.2905 15.8682 22.95C16.0922 23.5997 16.4142 24.167 16.8342 24.6519C17.2542 25.1368 17.7675 25.5198 18.3742 25.801C18.9902 26.0725 19.6809 26.2083 20.4462 26.2083C21.2209 26.2083 21.9115 26.0725 22.5182 25.801C23.1249 25.5198 23.6382 25.1368 24.0582 24.6519C24.4782 24.167 24.8002 23.5997 25.0242 22.95C25.2482 22.2905 25.3602 21.5826 25.3602 20.8262C25.3602 20.0504 25.2482 19.3328 25.0242 18.6733C24.8002 18.0042 24.4782 17.4224 24.0582 16.9278C23.6382 16.4332 23.1249 16.0453 22.5182 15.7641C21.9115 15.4828 21.2209 15.3422 20.4462 15.3422C19.6809 15.3422 18.9902 15.4828 18.3742 15.7641C17.7675 16.0453 17.2542 16.4332 16.8342 16.9278C16.4142 17.4224 16.0922 18.0042 15.8682 18.6733C15.6442 19.3328 15.5322 20.0504 15.5322 20.8262ZM30.3067 24.6228C29.9894 24.6228 29.7187 24.5549 29.4947 24.4191C29.2707 24.2833 29.0887 24.1088 28.9487 23.8955C28.818 23.6724 28.72 23.4154 28.6547 23.1245C28.5987 22.8336 28.5707 22.5378 28.5707 22.2372C28.5707 21.9268 28.5987 21.6262 28.6547 21.3353C28.7107 21.0444 28.804 20.7874 28.9347 20.5644C29.0747 20.3413 29.252 20.1619 29.4667 20.0261C29.6907 19.8807 29.966 19.808 30.2927 19.808C30.61 19.808 30.876 19.8807 31.0907 20.0261C31.3147 20.1619 31.4967 20.3462 31.6367 20.5789C31.7767 20.802 31.8747 21.0589 31.9307 21.3499C31.996 21.6408 32.0287 21.9366 32.0287 22.2372C32.0287 22.5378 32.0007 22.8336 31.9447 23.1245C31.8887 23.4154 31.7907 23.6724 31.6507 23.8955C31.52 24.1088 31.3427 24.2833 31.1187 24.4191C30.904 24.5549 30.6334 24.6228 30.3067 24.6228ZM26.6527 18.4551V28.6085H28.6407V25.0446H28.6687C28.9114 25.4132 29.2194 25.6943 29.5927 25.8883C29.9754 26.0725 30.3907 26.1647 30.8387 26.1647C31.3707 26.1647 31.8327 26.058 32.2247 25.8447C32.626 25.6314 32.9574 25.3452 33.2187 24.9864C33.4894 24.6277 33.69 24.2155 33.8207 23.75C33.9514 23.2845 34.0167 22.7996 34.0167 22.2954C34.0167 21.762 33.9514 21.2529 33.8207 20.768C33.69 20.2734 33.4894 19.8419 33.2187 19.4734C32.948 19.1048 32.6074 18.8091 32.1967 18.5861C31.786 18.363 31.296 18.2515 30.7267 18.2515C30.2787 18.2515 29.868 18.3437 29.4947 18.5279C29.1214 18.7121 28.8134 19.0079 28.5707 19.4152H28.5427V18.4551H26.6527ZM40.0833 21.408H36.8493C36.8586 21.2626 36.8866 21.0977 36.9333 20.9135C36.9893 20.7293 37.0779 20.5547 37.1993 20.3898C37.3299 20.2249 37.4979 20.0892 37.7033 19.9825C37.9179 19.8661 38.1839 19.808 38.5013 19.808C38.9866 19.808 39.3459 19.9438 39.5793 20.2152C39.8219 20.4867 39.9899 20.8844 40.0833 21.408ZM36.8493 22.7172H42.0713C42.1086 22.1354 42.0619 21.5777 41.9313 21.0444C41.8006 20.5111 41.5859 20.0358 41.2873 19.6188C40.9979 19.2019 40.6246 18.8721 40.1673 18.6297C39.7099 18.3775 39.1733 18.2515 38.5573 18.2515C38.0066 18.2515 37.5026 18.3533 37.0453 18.557C36.5973 18.7606 36.2099 19.0419 35.8833 19.4007C35.5566 19.7498 35.3046 20.1667 35.1273 20.6516C34.9499 21.1366 34.8613 21.6602 34.8613 22.2226C34.8613 22.8045 34.9453 23.3378 35.1133 23.8227C35.2906 24.3077 35.5379 24.7246 35.8553 25.0737C36.1726 25.4228 36.5599 25.6943 37.0173 25.8883C37.4746 26.0725 37.9879 26.1647 38.5573 26.1647C39.3786 26.1647 40.0786 25.9707 40.6573 25.5828C41.2359 25.195 41.6653 24.5501 41.9453 23.6482H40.1953C40.1299 23.8809 39.9526 24.104 39.6633 24.3173C39.3739 24.521 39.0286 24.6228 38.6273 24.6228C38.0673 24.6228 37.6379 24.4724 37.3393 24.1719C37.0406 23.8713 36.8773 23.3864 36.8493 22.7172ZM43.2503 18.4551V25.9756H45.2383V22.0335C45.2383 21.2675 45.3597 20.7195 45.6023 20.3898C45.845 20.0504 46.237 19.8807 46.7783 19.8807C47.2543 19.8807 47.5857 20.0358 47.7723 20.3462C47.959 20.6468 48.0523 21.1075 48.0523 21.7281V25.9756H50.0403V21.3499C50.0403 20.8844 49.9983 20.4625 49.9143 20.0843C49.8397 19.6965 49.7043 19.3716 49.5083 19.1097C49.3123 18.8382 49.0417 18.6297 48.6963 18.4842C48.3603 18.3291 47.9263 18.2515 47.3943 18.2515C46.9743 18.2515 46.5637 18.3533 46.1623 18.557C45.761 18.751 45.4343 19.0661 45.1823 19.5025H45.1403V18.4551H43.2503Z" fill="#2E2E2E"/>
<g filter="url(#filter1_d)">
<path d="M352 46.7561H214C211.791 46.7561 210 48.6169 210 50.9122V81.0439C210 83.3393 211.791 85.2 214 85.2H352C354.209 85.2 356 83.3393 356 81.0439V50.9122C356 48.6169 354.209 46.7561 352 46.7561Z" fill="white"/>
<path d="M352 46.7561H214C211.791 46.7561 210 48.6169 210 50.9122V81.0439C210 83.3393 211.791 85.2 214 85.2H352C354.209 85.2 356 83.3393 356 81.0439V50.9122C356 48.6169 354.209 46.7561 352 46.7561Z" stroke="#D6D6D6"/>
</g>
<path d="M332 57.1463H222V63.3805H332V57.1463Z" fill="#D8D8D8"/>
<path d="M300 68.5756H222V74.8098H300V68.5756Z" fill="#D8D8D8"/>
<g filter="url(#filter2_d)">
<path d="M157 98.7073H19C16.7909 98.7073 15 100.568 15 102.863V132.995C15 135.29 16.7909 137.151 19 137.151H157C159.209 137.151 161 135.29 161 132.995V102.863C161 100.568 159.209 98.7073 157 98.7073Z" fill="white"/>
<path d="M157 98.7073H19C16.7909 98.7073 15 100.568 15 102.863V132.995C15 135.29 16.7909 137.151 19 137.151H157C159.209 137.151 161 135.29 161 132.995V102.863C161 100.568 159.209 98.7073 157 98.7073Z" stroke="#D6D6D6"/>
</g>
<path d="M137 109.098H27V115.332H137V109.098Z" fill="#D8D8D8"/>
<path d="M105 120.527H27V126.761H105V120.527Z" fill="#D8D8D8"/>
<g filter="url(#filter3_d)">
<path d="M352 96.6293H214C211.791 96.6293 210 98.49 210 100.785V130.917C210 133.212 211.791 135.073 214 135.073H352C354.209 135.073 356 133.212 356 130.917V100.785C356 98.49 354.209 96.6293 352 96.6293Z" fill="white"/>
<path d="M352 96.6293H214C211.791 96.6293 210 98.49 210 100.785V130.917C210 133.212 211.791 135.073 214 135.073H352C354.209 135.073 356 133.212 356 130.917V100.785C356 98.49 354.209 96.6293 352 96.6293Z" stroke="#D6D6D6"/>
</g>
<path d="M316 107.02H222V113.254H316V107.02Z" fill="#D8D8D8"/>
<path d="M292 118.449H222V124.683H292V118.449Z" fill="#D8D8D8"/>
<g filter="url(#filter4_d)">
<path d="M157 46.7561H19C16.7909 46.7561 15 48.6169 15 50.9122V81.0439C15 83.3393 16.7909 85.2 19 85.2H157C159.209 85.2 161 83.3393 161 81.0439V50.9122C161 48.6169 159.209 46.7561 157 46.7561Z" fill="white"/>
<path d="M157 46.7561H19C16.7909 46.7561 15 48.6169 15 50.9122V81.0439C15 83.3393 16.7909 85.2 19 85.2H157C159.209 85.2 161 83.3393 161 81.0439V50.9122C161 48.6169 159.209 46.7561 157 46.7561Z" stroke="#D6D6D6"/>
</g>
<path d="M121 57.1463H27V63.3805H121V57.1463Z" fill="#D8D8D8"/>
<path d="M97 68.5756H27V74.8098H97V68.5756Z" fill="#D8D8D8"/>
<g filter="url(#filter5_d)">
<path d="M157 148.581H19C16.7909 148.581 15 150.441 15 152.737V182.868C15 185.164 16.7909 187.024 19 187.024H157C159.209 187.024 161 185.164 161 182.868V152.737C161 150.441 159.209 148.581 157 148.581Z" fill="white"/>
<path d="M157 148.581H19C16.7909 148.581 15 150.441 15 152.737V182.868C15 185.164 16.7909 187.024 19 187.024H157C159.209 187.024 161 185.164 161 182.868V152.737C161 150.441 159.209 148.581 157 148.581Z" stroke="#D6D6D6"/>
</g>
<path d="M145 158.971H27V165.205H145V158.971Z" fill="#D8D8D8"/>
<path d="M121 170.4H27V176.634H121V170.4Z" fill="#D8D8D8"/>
<path d="M547 46.7561H409C406.791 46.7561 405 48.6169 405 50.9122V81.0439C405 83.3393 406.791 85.2 409 85.2H547C549.209 85.2 551 83.3393 551 81.0439V50.9122C551 48.6169 549.209 46.7561 547 46.7561Z" fill="white" stroke="#D6D6D6" stroke-dasharray="4 2"/>
<path d="M414.63 19.0806H416.758C416.693 18.4794 416.534 17.946 416.282 17.4805C416.03 17.0151 415.708 16.6272 415.316 16.3168C414.933 15.9968 414.495 15.7544 414 15.5895C413.515 15.4246 412.997 15.3422 412.446 15.3422C411.681 15.3422 410.99 15.4828 410.374 15.7641C409.767 16.0453 409.254 16.4332 408.834 16.9278C408.414 17.4224 408.092 18.0042 407.868 18.6733C407.644 19.3328 407.532 20.0504 407.532 20.8262C407.532 21.5826 407.644 22.2905 407.868 22.95C408.092 23.5997 408.414 24.167 408.834 24.6519C409.254 25.1368 409.767 25.5198 410.374 25.801C410.99 26.0725 411.681 26.2083 412.446 26.2083C413.062 26.2083 413.627 26.1114 414.14 25.9174C414.653 25.7234 415.101 25.4423 415.484 25.0737C415.867 24.7052 416.175 24.2591 416.408 23.7355C416.641 23.2118 416.786 22.6251 416.842 21.9754H414.714C414.63 22.6736 414.397 23.236 414.014 23.6627C413.641 24.0895 413.118 24.3028 412.446 24.3028C411.951 24.3028 411.531 24.2058 411.186 24.0118C410.841 23.8082 410.561 23.5415 410.346 23.2118C410.131 22.8821 409.973 22.5136 409.87 22.1063C409.777 21.6893 409.73 21.2626 409.73 20.8262C409.73 20.3704 409.777 19.9292 409.87 19.5025C409.973 19.0758 410.131 18.6975 410.346 18.3679C410.561 18.0284 410.841 17.7618 411.186 17.5678C411.531 17.3642 411.951 17.2623 412.446 17.2623C412.717 17.2623 412.973 17.3109 413.216 17.4078C413.468 17.4951 413.692 17.6211 413.888 17.786C414.084 17.9509 414.247 18.1448 414.378 18.3679C414.509 18.5812 414.593 18.8188 414.63 19.0806ZM418.189 15.5895V25.9756H420.177V15.5895H418.189ZM423.506 22.2226C423.506 21.9221 423.534 21.6262 423.59 21.3353C423.646 21.0444 423.74 20.7874 423.87 20.5644C424.01 20.3413 424.192 20.1619 424.416 20.0261C424.64 19.8807 424.92 19.808 425.256 19.808C425.592 19.808 425.872 19.8807 426.096 20.0261C426.33 20.1619 426.512 20.3413 426.642 20.5644C426.782 20.7874 426.88 21.0444 426.936 21.3353C426.992 21.6262 427.02 21.9221 427.02 22.2226C427.02 22.5232 426.992 22.819 426.936 23.11C426.88 23.3912 426.782 23.6482 426.642 23.8809C426.512 24.104 426.33 24.2833 426.096 24.4191C425.872 24.5549 425.592 24.6228 425.256 24.6228C424.92 24.6228 424.64 24.5549 424.416 24.4191C424.192 24.2833 424.01 24.104 423.87 23.8809C423.74 23.6482 423.646 23.3912 423.59 23.11C423.534 22.819 423.506 22.5232 423.506 22.2226ZM421.518 22.2226C421.518 22.8239 421.607 23.3669 421.784 23.8518C421.962 24.3367 422.214 24.7537 422.54 25.1028C422.867 25.4423 423.259 25.7041 423.716 25.8883C424.174 26.0725 424.687 26.1647 425.256 26.1647C425.826 26.1647 426.339 26.0725 426.796 25.8883C427.263 25.7041 427.66 25.4423 427.986 25.1028C428.313 24.7537 428.565 24.3367 428.742 23.8518C428.92 23.3669 429.008 22.8239 429.008 22.2226C429.008 21.6214 428.92 21.0784 428.742 20.5935C428.565 20.0989 428.313 19.6819 427.986 19.3425C427.66 18.9934 427.263 18.7266 426.796 18.5424C426.339 18.3484 425.826 18.2515 425.256 18.2515C424.687 18.2515 424.174 18.3484 423.716 18.5424C423.259 18.7266 422.867 18.9934 422.54 19.3425C422.214 19.6819 421.962 20.0989 421.784 20.5935C421.607 21.0784 421.518 21.6214 421.518 22.2226ZM431.841 23.5318H429.951C429.97 24.0361 430.077 24.4579 430.273 24.7973C430.478 25.127 430.735 25.3937 431.043 25.5974C431.36 25.801 431.72 25.9465 432.121 26.0338C432.522 26.1211 432.933 26.1647 433.353 26.1647C433.764 26.1647 434.165 26.1211 434.557 26.0338C434.958 25.9562 435.313 25.8156 435.621 25.6119C435.929 25.4083 436.176 25.1416 436.363 24.8119C436.559 24.4724 436.657 24.0555 436.657 23.5609C436.657 23.2118 436.592 22.9209 436.461 22.6881C436.33 22.4457 436.158 22.2469 435.943 22.0917C435.728 21.9268 435.481 21.7959 435.201 21.699C434.93 21.602 434.65 21.5195 434.361 21.4517C434.081 21.3838 433.806 21.3208 433.535 21.2626C433.264 21.2044 433.022 21.1413 432.807 21.0735C432.602 20.9959 432.434 20.8989 432.303 20.7826C432.172 20.6662 432.107 20.5158 432.107 20.3316C432.107 20.1765 432.144 20.0552 432.219 19.968C432.294 19.871 432.382 19.7983 432.485 19.7498C432.597 19.7012 432.718 19.6722 432.849 19.6625C432.98 19.6431 433.101 19.6334 433.213 19.6334C433.568 19.6334 433.876 19.7061 434.137 19.8516C434.398 19.9874 434.543 20.254 434.571 20.6516H436.461C436.424 20.1862 436.307 19.8031 436.111 19.5025C435.924 19.1921 435.686 18.9448 435.397 18.7606C435.108 18.5764 434.776 18.4455 434.403 18.3679C434.039 18.2902 433.661 18.2515 433.269 18.2515C432.877 18.2515 432.494 18.2902 432.121 18.3679C431.748 18.4357 431.412 18.5618 431.113 18.7461C430.814 18.9206 430.572 19.163 430.385 19.4734C430.208 19.7837 430.119 20.1813 430.119 20.6662C430.119 20.9959 430.184 21.2771 430.315 21.5099C430.446 21.733 430.618 21.9221 430.833 22.0772C431.048 22.2226 431.29 22.3439 431.561 22.4408C431.841 22.5281 432.126 22.6057 432.415 22.6736C433.124 22.8287 433.675 22.9839 434.067 23.1391C434.468 23.2942 434.669 23.5269 434.669 23.8373C434.669 24.0215 434.627 24.1767 434.543 24.3028C434.459 24.4191 434.352 24.5161 434.221 24.5937C434.1 24.6615 433.96 24.715 433.801 24.7537C433.652 24.7828 433.507 24.7973 433.367 24.7973C433.171 24.7973 432.98 24.7731 432.793 24.7246C432.616 24.6761 432.457 24.6034 432.317 24.5064C432.177 24.3997 432.06 24.2688 431.967 24.1137C431.883 23.9488 431.841 23.7549 431.841 23.5318ZM442.692 21.408H439.458C439.468 21.2626 439.496 21.0977 439.542 20.9135C439.598 20.7293 439.687 20.5547 439.808 20.3898C439.939 20.2249 440.107 20.0892 440.312 19.9825C440.527 19.8661 440.793 19.808 441.11 19.808C441.596 19.808 441.955 19.9438 442.188 20.2152C442.431 20.4867 442.599 20.8844 442.692 21.408ZM439.458 22.7172H444.68C444.718 22.1354 444.671 21.5777 444.54 21.0444C444.41 20.5111 444.195 20.0358 443.896 19.6188C443.607 19.2019 443.234 18.8721 442.776 18.6297C442.319 18.3775 441.782 18.2515 441.166 18.2515C440.616 18.2515 440.112 18.3533 439.654 18.557C439.206 18.7606 438.819 19.0419 438.492 19.4007C438.166 19.7498 437.914 20.1667 437.736 20.6516C437.559 21.1366 437.47 21.6602 437.47 22.2226C437.47 22.8045 437.554 23.3378 437.722 23.8227C437.9 24.3077 438.147 24.7246 438.464 25.0737C438.782 25.4228 439.169 25.6943 439.626 25.8883C440.084 26.0725 440.597 26.1647 441.166 26.1647C441.988 26.1647 442.688 25.9707 443.266 25.5828C443.845 25.195 444.274 24.5501 444.554 23.6482H442.804C442.739 23.8809 442.562 24.104 442.272 24.3173C441.983 24.521 441.638 24.6228 441.236 24.6228C440.676 24.6228 440.247 24.4724 439.948 24.1719C439.65 23.8713 439.486 23.3864 439.458 22.7172ZM450.998 22.1936C450.998 22.5039 450.97 22.8045 450.914 23.0954C450.858 23.3864 450.764 23.6482 450.634 23.8809C450.503 24.104 450.326 24.2833 450.102 24.4191C449.887 24.5549 449.616 24.6228 449.29 24.6228C448.982 24.6228 448.716 24.5549 448.492 24.4191C448.277 24.2737 448.095 24.0895 447.946 23.8664C447.806 23.6336 447.703 23.3718 447.638 23.0809C447.572 22.79 447.54 22.499 447.54 22.2081C447.54 21.8977 447.568 21.602 447.624 21.3208C447.689 21.0298 447.787 20.7729 447.918 20.5498C448.058 20.3267 448.24 20.1474 448.464 20.0116C448.688 19.8758 448.963 19.808 449.29 19.808C449.616 19.808 449.887 19.8758 450.102 20.0116C450.316 20.1474 450.489 20.3267 450.62 20.5498C450.76 20.7631 450.858 21.0153 450.914 21.3062C450.97 21.5875 450.998 21.8832 450.998 22.1936ZM451.026 25.0155V25.9756H452.916V15.5895H450.928V19.3716H450.9C450.676 19.003 450.368 18.7266 449.976 18.5424C449.593 18.3484 449.187 18.2515 448.758 18.2515C448.226 18.2515 447.759 18.363 447.358 18.5861C446.956 18.7994 446.62 19.0855 446.35 19.4443C446.088 19.8031 445.888 20.2201 445.748 20.6953C445.617 21.1608 445.552 21.6457 445.552 22.1499C445.552 22.6736 445.617 23.1778 445.748 23.6627C445.888 24.1476 446.088 24.5792 446.35 24.9574C446.62 25.3259 446.961 25.6216 447.372 25.8447C447.782 26.058 448.258 26.1647 448.8 26.1647C449.276 26.1647 449.7 26.0774 450.074 25.9029C450.456 25.7187 450.764 25.4228 450.998 25.0155H451.026Z" fill="#2E2E2E"/>
<path d="M340.093 89.0391C339.649 88.6987 339.023 88.7973 338.695 89.2593C338.367 89.7212 338.462 90.3716 338.907 90.7121L340.093 89.0391ZM426 89.8756L414.587 91.6965L421.811 101.056L426 89.8756ZM340.605 91.9917C341.054 92.3248 341.679 92.2162 341.999 91.7491C342.32 91.2818 342.215 90.633 341.766 90.2998L340.605 91.9917ZM346.07 93.3338C345.605 93.0235 344.986 93.1634 344.688 93.6461C344.389 94.1289 344.524 94.7717 344.988 95.082L346.07 93.3338ZM348.603 97.3829C349.08 97.6717 349.692 97.5039 349.97 97.0081C350.248 96.5123 350.087 95.8762 349.61 95.5873L348.603 97.3829ZM354.158 98.1582C353.665 97.8994 353.064 98.1047 352.815 98.6168C352.566 99.129 352.763 99.7539 353.256 100.013L354.158 98.1582ZM357.099 101.904C357.604 102.136 358.194 101.899 358.418 101.374C358.641 100.849 358.413 100.236 357.908 100.004L357.099 101.904ZM362.707 102.008C362.187 101.813 361.614 102.092 361.426 102.632C361.238 103.171 361.507 103.767 362.027 103.962L362.707 102.008ZM366.063 105.34C366.592 105.503 367.149 105.189 367.305 104.638C367.462 104.087 367.159 103.51 366.63 103.347L366.063 105.34ZM371.633 104.664C371.093 104.546 370.562 104.905 370.448 105.466C370.334 106.028 370.68 106.579 371.22 106.697L371.633 104.664ZM375.421 107.467C375.968 107.548 376.474 107.153 376.551 106.585C376.629 106.017 376.248 105.491 375.701 105.41L375.421 107.467ZM380.826 105.93C380.274 105.899 379.803 106.339 379.774 106.911C379.745 107.485 380.168 107.974 380.72 108.005L380.826 105.93ZM384.99 108.08C385.542 108.069 385.981 107.595 385.97 107.022C385.959 106.447 385.503 105.991 384.951 106.002L384.99 108.08ZM390.083 105.656C389.534 105.719 389.138 106.233 389.199 106.803C389.26 107.374 389.755 107.784 390.304 107.721L390.083 105.656ZM394.53 107.07C395.073 106.965 395.432 106.423 395.331 105.859C395.23 105.295 394.708 104.922 394.165 105.027L394.53 107.07ZM399.172 103.818C398.641 103.973 398.33 104.546 398.478 105.098C398.627 105.651 399.179 105.974 399.711 105.819L399.172 103.818ZM403.773 104.482C404.294 104.29 404.566 103.696 404.381 103.155C404.197 102.614 403.625 102.332 403.104 102.523L403.773 104.482ZM407.901 100.521C407.398 100.756 407.173 101.371 407.399 101.895C407.625 102.418 408.217 102.652 408.721 102.417L407.901 100.521ZM412.542 100.485C413.031 100.218 413.22 99.5904 412.963 99.0822C412.707 98.5739 412.102 98.3779 411.613 98.6445L412.542 100.485ZM416.094 95.9876C415.624 96.2891 415.478 96.9293 415.768 97.4176C416.059 97.9058 416.675 98.0572 417.145 97.7557L416.094 95.9876ZM420.696 95.3409C421.15 95.0144 421.264 94.3672 420.95 93.8953C420.635 93.4234 420.012 93.3054 419.558 93.6318L420.696 95.3409ZM423.727 90.4381C423.292 90.7921 423.216 91.4452 423.556 91.8968C423.897 92.3486 424.525 92.4278 424.96 92.0739L423.727 90.4381ZM338.907 90.7121C339.434 91.116 340.001 91.5443 340.605 91.9917L341.766 90.2998C341.172 89.8597 340.614 89.4379 340.093 89.0391L338.907 90.7121ZM344.988 95.082C346.118 95.8363 347.324 96.6088 348.603 97.3829L349.61 95.5873C348.358 94.8299 347.177 94.0733 346.07 93.3338L344.988 95.082ZM353.256 100.013C354.488 100.66 355.77 101.294 357.099 101.904L357.908 100.004C356.612 99.4086 355.361 98.7899 354.158 98.1582L353.256 100.013ZM362.027 103.962C363.336 104.454 364.682 104.915 366.063 105.34L366.63 103.347C365.289 102.935 363.98 102.486 362.707 102.008L362.027 103.962ZM371.22 106.697C372.593 106.999 373.993 107.257 375.421 107.467L375.701 105.41C374.32 105.206 372.963 104.956 371.633 104.664L371.22 106.697ZM380.72 108.005C382.122 108.082 383.546 108.109 384.99 108.08L384.951 106.002C383.556 106.03 382.181 106.004 380.826 105.93L380.72 108.005ZM390.304 107.721C391.697 107.56 393.106 107.345 394.53 107.07L394.165 105.027C392.79 105.293 391.428 105.5 390.083 105.656L390.304 107.721ZM399.711 105.819C401.054 105.43 402.409 104.985 403.773 104.482L403.104 102.523C401.783 103.011 400.472 103.441 399.172 103.818L399.711 105.819ZM408.721 102.417C409.987 101.825 411.261 101.182 412.542 100.485L411.613 98.6445C410.368 99.3226 409.131 99.9473 407.901 100.521L408.721 102.417ZM417.145 97.7557C418.324 96.9991 419.508 96.1948 420.696 95.3409L419.558 93.6318C418.398 94.4656 417.243 95.2502 416.094 95.9876L417.145 97.7557Z" fill="#5398AD"/>
<path d="M216.724 19.5233V26.5073H218.608V19.5233H221.176V17.9393H214.156V19.5233H216.724ZM222.16 23.4113C222.16 23.1633 222.184 22.9193 222.232 22.6793C222.28 22.4393 222.36 22.2273 222.472 22.0433C222.592 21.8593 222.748 21.7113 222.94 21.5993C223.132 21.4793 223.372 21.4193 223.66 21.4193C223.948 21.4193 224.188 21.4793 224.38 21.5993C224.58 21.7113 224.736 21.8593 224.848 22.0433C224.968 22.2273 225.052 22.4393 225.1 22.6793C225.148 22.9193 225.172 23.1633 225.172 23.4113C225.172 23.6593 225.148 23.9033 225.1 24.1433C225.052 24.3753 224.968 24.5873 224.848 24.7793C224.736 24.9633 224.58 25.1113 224.38 25.2233C224.188 25.3353 223.948 25.3913 223.66 25.3913C223.372 25.3913 223.132 25.3353 222.94 25.2233C222.748 25.1113 222.592 24.9633 222.472 24.7793C222.36 24.5873 222.28 24.3753 222.232 24.1433C222.184 23.9033 222.16 23.6593 222.16 23.4113ZM220.456 23.4113C220.456 23.9073 220.532 24.3553 220.684 24.7553C220.836 25.1553 221.052 25.4993 221.332 25.7873C221.612 26.0673 221.948 26.2833 222.34 26.4353C222.732 26.5873 223.172 26.6633 223.66 26.6633C224.148 26.6633 224.588 26.5873 224.98 26.4353C225.38 26.2833 225.72 26.0673 226 25.7873C226.28 25.4993 226.496 25.1553 226.648 24.7553C226.8 24.3553 226.876 23.9073 226.876 23.4113C226.876 22.9153 226.8 22.4673 226.648 22.0673C226.496 21.6593 226.28 21.3153 226 21.0353C225.72 20.7473 225.38 20.5273 224.98 20.3753C224.588 20.2153 224.148 20.1353 223.66 20.1353C223.172 20.1353 222.732 20.2153 222.34 20.3753C221.948 20.5273 221.612 20.7473 221.332 21.0353C221.052 21.3153 220.836 21.6593 220.684 22.0673C220.532 22.4673 220.456 22.9153 220.456 23.4113ZM235.728 23.3873C235.728 23.6433 235.704 23.8913 235.656 24.1313C235.608 24.3713 235.528 24.5873 235.416 24.7793C235.304 24.9633 235.152 25.1113 234.96 25.2233C234.776 25.3353 234.544 25.3913 234.264 25.3913C234 25.3913 233.772 25.3353 233.58 25.2233C233.396 25.1033 233.24 24.9513 233.112 24.7673C232.992 24.5753 232.904 24.3593 232.848 24.1193C232.792 23.8793 232.764 23.6393 232.764 23.3993C232.764 23.1433 232.788 22.8993 232.836 22.6673C232.892 22.4273 232.976 22.2153 233.088 22.0313C233.208 21.8473 233.364 21.6993 233.556 21.5873C233.748 21.4753 233.984 21.4193 234.264 21.4193C234.544 21.4193 234.776 21.4753 234.96 21.5873C235.144 21.6993 235.292 21.8473 235.404 22.0313C235.524 22.2073 235.608 22.4153 235.656 22.6553C235.704 22.8873 235.728 23.1313 235.728 23.3873ZM235.752 25.7153V26.5073H237.372V17.9393H235.668V21.0593H235.644C235.452 20.7553 235.188 20.5273 234.852 20.3753C234.524 20.2153 234.176 20.1353 233.808 20.1353C233.352 20.1353 232.952 20.2273 232.608 20.4113C232.264 20.5873 231.976 20.8233 231.744 21.1193C231.52 21.4153 231.348 21.7593 231.228 22.1513C231.116 22.5353 231.06 22.9353 231.06 23.3513C231.06 23.7833 231.116 24.1993 231.228 24.5993C231.348 24.9993 231.52 25.3553 231.744 25.6673C231.976 25.9713 232.268 26.2153 232.62 26.3993C232.972 26.5753 233.38 26.6633 233.844 26.6633C234.252 26.6633 234.616 26.5913 234.936 26.4473C235.264 26.2953 235.528 26.0513 235.728 25.7153H235.752ZM240.172 23.4113C240.172 23.1633 240.196 22.9193 240.244 22.6793C240.292 22.4393 240.372 22.2273 240.484 22.0433C240.604 21.8593 240.76 21.7113 240.952 21.5993C241.144 21.4793 241.384 21.4193 241.672 21.4193C241.96 21.4193 242.2 21.4793 242.392 21.5993C242.592 21.7113 242.748 21.8593 242.86 22.0433C242.98 22.2273 243.064 22.4393 243.112 22.6793C243.16 22.9193 243.184 23.1633 243.184 23.4113C243.184 23.6593 243.16 23.9033 243.112 24.1433C243.064 24.3753 242.98 24.5873 242.86 24.7793C242.748 24.9633 242.592 25.1113 242.392 25.2233C242.2 25.3353 241.96 25.3913 241.672 25.3913C241.384 25.3913 241.144 25.3353 240.952 25.2233C240.76 25.1113 240.604 24.9633 240.484 24.7793C240.372 24.5873 240.292 24.3753 240.244 24.1433C240.196 23.9033 240.172 23.6593 240.172 23.4113ZM238.468 23.4113C238.468 23.9073 238.544 24.3553 238.696 24.7553C238.848 25.1553 239.064 25.4993 239.344 25.7873C239.624 26.0673 239.96 26.2833 240.352 26.4353C240.744 26.5873 241.184 26.6633 241.672 26.6633C242.16 26.6633 242.6 26.5873 242.992 26.4353C243.392 26.2833 243.732 26.0673 244.012 25.7873C244.292 25.4993 244.508 25.1553 244.66 24.7553C244.812 24.3553 244.888 23.9073 244.888 23.4113C244.888 22.9153 244.812 22.4673 244.66 22.0673C244.508 21.6593 244.292 21.3153 244.012 21.0353C243.732 20.7473 243.392 20.5273 242.992 20.3753C242.6 20.2153 242.16 20.1353 241.672 20.1353C241.184 20.1353 240.744 20.2153 240.352 20.3753C239.96 20.5273 239.624 20.7473 239.344 21.0353C239.064 21.3153 238.848 21.6593 238.696 22.0673C238.544 22.4673 238.468 22.9153 238.468 23.4113Z" fill="white"/>
<defs>
<filter id="filter0_i" x="195" y="0" width="176" height="213" filterUnits="userSpaceOnUse" color-interpolation-filters="sRGB">
<feFlood flood-opacity="0" result="BackgroundImageFix"/>
<feBlend mode="normal" in="SourceGraphic" in2="BackgroundImageFix" result="shape"/>
<feColorMatrix in="SourceAlpha" type="matrix" values="0 0 0 0 0 0 0 0 0 0 0 0 0 0 0 0 0 0 127 0" result="hardAlpha"/>
<feOffset dy="3"/>
<feComposite in2="hardAlpha" operator="arithmetic" k2="-1" k3="1"/>
<feColorMatrix type="matrix" values="0 0 0 0 0.85098 0 0 0 0 0.32549 0 0 0 0 0.309804 0 0 0 1 0"/>
<feBlend mode="normal" in2="shape" result="effect1_innerShadow"/>
</filter>
<filter id="filter1_d" x="208.5" y="46.2561" width="149" height="41.4439" filterUnits="userSpaceOnUse" color-interpolation-filters="sRGB">
<feFlood flood-opacity="0" result="BackgroundImageFix"/>
<feColorMatrix in="SourceAlpha" type="matrix" values="0 0 0 0 0 0 0 0 0 0 0 0 0 0 0 0 0 0 127 0"/>
<feOffset dy="1"/>
<feGaussianBlur stdDeviation="0.5"/>
<feColorMatrix type="matrix" values="0 0 0 0 0 0 0 0 0 0 0 0 0 0 0 0 0 0 0.0791084 0"/>
<feBlend mode="normal" in2="BackgroundImageFix" result="effect1_dropShadow"/>
<feBlend mode="normal" in="SourceGraphic" in2="effect1_dropShadow" result="shape"/>
</filter>
<filter id="filter2_d" x="13.5" y="98.2073" width="149" height="41.4439" filterUnits="userSpaceOnUse" color-interpolation-filters="sRGB">
<feFlood flood-opacity="0" result="BackgroundImageFix"/>
<feColorMatrix in="SourceAlpha" type="matrix" values="0 0 0 0 0 0 0 0 0 0 0 0 0 0 0 0 0 0 127 0"/>
<feOffset dy="1"/>
<feGaussianBlur stdDeviation="0.5"/>
<feColorMatrix type="matrix" values="0 0 0 0 0 0 0 0 0 0 0 0 0 0 0 0 0 0 0.0791084 0"/>
<feBlend mode="normal" in2="BackgroundImageFix" result="effect1_dropShadow"/>
<feBlend mode="normal" in="SourceGraphic" in2="effect1_dropShadow" result="shape"/>
</filter>
<filter id="filter3_d" x="208.5" y="96.1293" width="149" height="41.4439" filterUnits="userSpaceOnUse" color-interpolation-filters="sRGB">
<feFlood flood-opacity="0" result="BackgroundImageFix"/>
<feColorMatrix in="SourceAlpha" type="matrix" values="0 0 0 0 0 0 0 0 0 0 0 0 0 0 0 0 0 0 127 0"/>
<feOffset dy="1"/>
<feGaussianBlur stdDeviation="0.5"/>
<feColorMatrix type="matrix" values="0 0 0 0 0 0 0 0 0 0 0 0 0 0 0 0 0 0 0.0791084 0"/>
<feBlend mode="normal" in2="BackgroundImageFix" result="effect1_dropShadow"/>
<feBlend mode="normal" in="SourceGraphic" in2="effect1_dropShadow" result="shape"/>
</filter>
<filter id="filter4_d" x="13.5" y="46.2561" width="149" height="41.4439" filterUnits="userSpaceOnUse" color-interpolation-filters="sRGB">
<feFlood flood-opacity="0" result="BackgroundImageFix"/>
<feColorMatrix in="SourceAlpha" type="matrix" values="0 0 0 0 0 0 0 0 0 0 0 0 0 0 0 0 0 0 127 0"/>
<feOffset dy="1"/>
<feGaussianBlur stdDeviation="0.5"/>
<feColorMatrix type="matrix" values="0 0 0 0 0 0 0 0 0 0 0 0 0 0 0 0 0 0 0.0791084 0"/>
<feBlend mode="normal" in2="BackgroundImageFix" result="effect1_dropShadow"/>
<feBlend mode="normal" in="SourceGraphic" in2="effect1_dropShadow" result="shape"/>
</filter>
<filter id="filter5_d" x="13.5" y="148.081" width="149" height="41.4439" filterUnits="userSpaceOnUse" color-interpolation-filters="sRGB">
<feFlood flood-opacity="0" result="BackgroundImageFix"/>
<feColorMatrix in="SourceAlpha" type="matrix" values="0 0 0 0 0 0 0 0 0 0 0 0 0 0 0 0 0 0 127 0"/>
<feOffset dy="1"/>
<feGaussianBlur stdDeviation="0.5"/>
<feColorMatrix type="matrix" values="0 0 0 0 0 0 0 0 0 0 0 0 0 0 0 0 0 0 0.0791084 0"/>
<feBlend mode="normal" in2="BackgroundImageFix" result="effect1_dropShadow"/>
<feBlend mode="normal" in="SourceGraphic" in2="effect1_dropShadow" result="shape"/>
</filter>
</defs>
</svg>
