<svg viewBox="0 0 32 32" fill="none" xmlns="http://www.w3.org/2000/svg">
<path fill-rule="evenodd" clip-rule="evenodd" d="M29.7152 15.0927H28.4629V10.1515H29.6493V10.7005C29.8031 10.3711 30.1766 10.0637 30.6379 10.0417C31.4508 9.99779 32.0001 10.4809 32.0001 11.5131V15.0927H30.7038V11.3594C30.7038 10.9201 30.7038 10.5468 30.4182 10.4809C30.3084 10.437 30.1326 10.4809 29.9788 10.5907C29.8031 10.7664 29.7152 11.008 29.7152 11.3594C29.7152 11.4472 29.7152 15.0927 29.7152 15.0927Z" fill="black"/>
<path fill-rule="evenodd" clip-rule="evenodd" d="M8.33606 10.474C8.05045 10.2105 7.67696 10.0348 7.23756 10.0348C6.79816 10.0348 6.46861 10.2105 6.13906 10.474C5.61178 10.9133 5.28223 11.7258 5.28223 12.6262C5.28223 13.5485 5.61178 14.3172 6.13906 14.7783C6.46861 15.0419 6.79816 15.2176 7.23756 15.2176C7.67696 15.2176 8.05045 15.0419 8.33606 14.7783C8.88531 14.3391 9.19289 13.5485 9.19289 12.6262C9.19289 11.7258 8.88531 10.9133 8.33606 10.474ZM7.85272 12.6262C7.85272 13.5485 7.85272 14.2952 7.69893 14.6685C7.58908 14.8442 7.47923 14.954 7.21559 14.954C6.99589 14.954 6.8421 14.8442 6.77619 14.6685C6.60043 14.2952 6.60043 13.5705 6.60043 12.6262C6.60043 11.7478 6.60043 10.9572 6.77619 10.5838C6.8421 10.4082 6.99589 10.2983 7.21559 10.2983C7.47923 10.2983 7.58908 10.4082 7.69893 10.5838C7.89666 10.9572 7.85272 11.7258 7.85272 12.6262Z" fill="black"/>
<path fill-rule="evenodd" clip-rule="evenodd" d="M21.2326 16.9831V18.3227H20.9909C20.8371 17.7517 20.6174 17.2685 20.0242 17.2466C19.6507 17.2027 19.3212 17.4223 19.2772 17.7736C19.2333 18.103 19.3431 18.4105 20.0242 18.7619C20.881 19.245 21.5401 19.4646 21.5401 20.4529C21.5401 21.5289 20.6174 22.034 19.8485 22.034C19.5189 22.034 18.3765 22.034 18.3765 22.034V20.1893H18.6401C18.8159 21.1556 19.1234 21.7485 19.8265 21.7705C20.2659 21.7705 20.5954 21.507 20.5954 21.0238C20.5954 20.5407 20.2879 20.2772 19.5848 19.8599C18.8159 19.3768 18.3325 19.0913 18.3325 18.4105C18.3325 17.5321 18.9696 16.9611 19.9583 16.9611C20.2879 16.9831 21.2326 16.9831 21.2326 16.9831Z" fill="black"/>
<path fill-rule="evenodd" clip-rule="evenodd" d="M22.8628 15.0927V11.5131C22.8628 10.481 22.3136 9.99783 21.5007 10.0418C20.9514 10.0857 20.6219 10.459 20.4681 10.7445C20.2923 10.2174 19.8749 9.99783 19.2817 10.0418C18.7984 10.0857 18.4249 10.3712 18.2931 10.7006V10.1516H17.1506V15.0927H18.4029C18.4029 15.0927 18.4029 11.4692 18.4029 11.3594C18.4029 10.9861 18.4469 10.7665 18.6666 10.5908C18.8204 10.481 18.9522 10.437 19.084 10.481C19.3696 10.5468 19.3696 10.9202 19.3696 11.3594V15.0927H20.6219V11.3374C20.6219 11.008 20.6878 10.7884 20.8855 10.5908C21.0393 10.481 21.1711 10.437 21.303 10.481C21.5886 10.5468 21.6325 10.9202 21.6325 11.3594V15.0927H22.8628Z" fill="black"/>
<path fill-rule="evenodd" clip-rule="evenodd" d="M10.0518 9.11075H11.348V15.106H10.0518V9.11075Z" fill="black"/>
<path fill-rule="evenodd" clip-rule="evenodd" d="M15.9159 15.106V9.11075H14.6197V10.5162C14.5098 10.2527 14.2462 10.077 13.8727 10.077C12.9719 10.077 12.225 11.0433 12.181 12.5147C12.1371 13.5029 12.4666 15.1719 13.7629 15.1719C14.2901 15.1719 14.5757 14.8864 14.6856 14.6229V15.106H15.9159ZM14.4 10.5602C14.6636 10.9335 14.6636 11.8119 14.6636 12.5147C14.6636 13.2613 14.7076 14.2057 14.4 14.6229C14.2901 14.7766 14.1803 14.8425 13.9826 14.8425C13.7189 14.8425 13.5651 14.557 13.4992 14.0739C13.4553 13.6347 13.4553 13.0857 13.4553 12.4927C13.4553 11.5045 13.5212 10.3845 14.0045 10.3845C14.2242 10.3625 14.2901 10.4504 14.4 10.5602Z" fill="black"/>
<path fill-rule="evenodd" clip-rule="evenodd" d="M26.7184 10.2983C27.0479 10.474 27.2676 10.7815 27.2676 11.4403V15.1078H26.0593V14.5587C25.9055 14.976 25.51 15.2176 24.9608 15.2176C24.5214 15.2176 23.7305 14.9979 23.7305 13.856C23.7305 12.7799 24.4335 12.5603 25.2025 12.2309C25.9055 11.9234 25.9714 11.8795 25.9714 11.594C25.9714 11.3305 25.9714 11.1109 25.9714 10.7815C25.9714 10.4521 25.7957 10.2983 25.4222 10.2983C25.2684 10.3423 25.0047 10.4081 25.0047 10.5838C24.9608 10.8034 25.2244 10.8034 25.2684 11.1328C25.3123 11.6599 24.8949 11.8356 24.5214 11.7917C24.2577 11.7917 23.9721 11.6379 23.9282 11.2427C23.8843 10.5838 24.6312 10.0128 25.6638 10.0128C26.1691 10.0348 26.4548 10.1446 26.7184 10.2983ZM25.9714 12.143L25.576 12.4066C25.1585 12.6701 25.0926 12.9995 25.0487 13.3728C25.0047 13.6583 25.0047 13.9219 25.0487 14.3611C25.0926 14.7783 25.3343 14.8442 25.576 14.7783C25.8396 14.6685 25.9934 14.1854 25.9934 13.6803C25.9714 13.6583 25.9714 12.3187 25.9714 12.143Z" fill="black"/>
<path fill-rule="evenodd" clip-rule="evenodd" d="M8.4181 17.2024C8.74765 17.422 8.92341 17.6856 8.92341 18.3444V22.0338H7.759V21.4848C7.60521 21.8581 7.20975 22.1216 6.6605 22.1216C6.17716 22.1216 5.43018 21.946 5.43018 20.782C5.43018 19.706 6.13322 19.4863 6.8802 19.1569C7.60521 18.8275 7.67112 18.7836 7.67112 18.542C7.67112 18.2785 7.67112 18.0589 7.67112 17.7295C7.67112 17.3562 7.49536 17.2024 7.12187 17.2463C6.96808 17.2463 6.70444 17.3122 6.70444 17.5099C6.6605 17.7734 6.92414 17.7734 6.96808 18.1028C7.01202 18.586 6.59459 18.7616 6.2211 18.7616C5.95746 18.7177 5.67185 18.586 5.62791 18.1687C5.60594 17.5318 6.35292 16.9828 7.38551 16.9828C7.86885 16.9828 8.15446 17.0487 8.4181 17.2024ZM7.67112 19.0471L7.25369 19.3107C6.85823 19.5742 6.79232 19.9036 6.74838 20.2769C6.70444 20.5624 6.70444 20.8699 6.74838 21.2652C6.74838 21.7044 7.01202 21.7922 7.23172 21.6824C7.51733 21.5726 7.67112 21.1334 7.67112 20.5844C7.67112 20.5624 7.67112 19.2448 7.67112 19.0471Z" fill="black"/>
<path fill-rule="evenodd" clip-rule="evenodd" d="M17.3509 18.459C17.3509 17.4269 16.8016 16.8998 15.9888 16.9877C15.5713 17.0316 15.2418 17.2073 15.066 17.4708V16.0214H13.8137V19.4253C13.8137 20.6771 12.9349 21.863 12.0342 21.819C11.397 21.819 11.2652 21.3359 11.1773 20.8308C11.0675 20.0841 11.0675 19.2277 11.1554 18.3053C11.2213 17.7124 11.3751 17.2292 11.8145 17.2292C12.144 17.2292 12.1879 17.4488 12.0342 17.6026C11.8804 17.8002 11.6607 17.9759 11.7705 18.3932C11.8804 18.8324 12.5834 18.9202 12.913 18.5688C13.1766 18.2834 13.1327 17.8002 12.9569 17.4928C12.7372 17.1194 12.3637 16.9657 11.8145 16.9657C11.1114 16.9657 9.77124 17.6026 9.77124 19.579C9.77124 21.7312 11.1334 22.0826 11.9243 22.0826C12.8031 22.0826 13.594 21.3139 13.8137 20.6771V22.0167H15.066V18.2834C15.066 17.91 15.1319 17.6904 15.3297 17.5147C15.4834 17.4049 15.6592 17.361 15.7691 17.4049C16.0547 17.4708 16.0547 17.8441 16.0547 18.2834V22.0167H17.3509V18.459Z" fill="black"/>
<path fill-rule="evenodd" clip-rule="evenodd" d="M4.41867 8.99991V11.1081H4.15503C3.93533 10.076 3.45199 9.2854 2.79289 9.26344C2.35349 9.21952 2.08985 9.48305 1.87015 9.85638C1.65045 10.2956 1.5406 11.2179 1.5406 12.3379C1.5406 13.3701 1.58454 14.1387 1.69439 14.7097C1.7603 14.9732 1.95803 15.3685 2.44137 15.3685C2.70501 15.3685 2.88077 15.3027 2.99062 15.1489C3.16638 14.9293 3.21032 14.4901 3.21032 14.1827C3.21032 13.6995 3.21032 13.5458 3.21032 13.1944C3.21032 12.843 3.10047 12.5795 2.90274 12.4697C2.74895 12.4038 2.52925 12.4038 2.4194 12.3599V12.0964H4.48458V17.3889H4.22094C4.11109 16.9717 4.04518 16.6862 3.84745 16.3568C3.67169 16.0274 3.34214 15.654 2.79289 15.654C2.1997 15.6101 1.7603 15.9834 1.7603 16.5325C1.7603 17.2791 2.1997 17.4548 3.01259 17.894C3.78154 18.3332 4.79217 18.7066 4.79217 20.0023C4.79217 21.254 3.71563 22.0446 2.50728 22.0446C2.24364 22.0446 0.551953 22.0446 0.551953 22.0446V19.4972H0.815594C1.14514 21.4297 1.95803 21.7591 2.50728 21.7591C3.21032 21.7591 3.53987 21.3199 3.53987 20.683C3.49593 19.8705 2.94668 19.585 2.17773 19.1678C1.07923 18.5309 0.551953 18.2454 0.551953 17.2132C0.595894 16.3348 1.29893 15.7638 2.06788 15.5442C0.442103 15.3685 -0.0412367 13.8752 0.0027033 12.294C0.0027033 10.7128 0.925444 8.99991 2.74895 8.99991C3.53987 8.99991 4.41867 8.99991 4.41867 8.99991Z" fill="black"/>
</svg>
