<svg viewBox="0 0 32 32" fill="none" xmlns="http://www.w3.org/2000/svg">
<path d="M1.9698 14.0182C2.54091 13.7384 3.17316 13.606 3.80839 13.6313C5.03709 13.6729 5.71258 14.2965 5.73942 15.5168C5.76924 16.7951 5.7603 18.0631 5.75582 19.3399C5.75582 19.8593 5.61864 19.9798 5.10419 19.9798H4.39142C3.93663 19.9798 3.79497 19.8414 3.78602 19.3846V15.9618C3.78602 15.432 3.53551 15.2147 2.99869 15.2355C2.90475 15.237 2.8123 15.2459 2.71985 15.2623C2.01603 15.4052 1.97577 15.4558 1.97577 16.1716V19.2224C1.97577 19.8742 1.86393 19.9843 1.21976 19.9843H0.505498C0.169991 19.9843 0.0223672 19.8266 0 19.4813V11.4213C0 10.832 0.125256 10.7085 0.706803 10.7085H1.33607C1.82367 10.7085 1.97428 10.8454 1.98322 11.3365C1.99664 12.0731 1.98322 12.8098 1.98322 13.5449C1.9698 13.6804 1.9698 13.8262 1.9698 14.0182ZM12.4779 17.005C12.4347 17.3443 12.4108 17.7788 12.3198 18.203C12.1782 19.1584 11.4341 19.9144 10.4798 20.0721C9.82665 20.212 9.15116 20.2031 8.50251 20.0468C7.68089 19.8891 7.02479 19.2685 6.82497 18.4574C6.52824 17.4351 6.52824 16.3487 6.82497 15.3248C7.13961 14.2503 7.96272 13.6744 9.16906 13.6327C9.60447 13.6089 10.0399 13.6372 10.4693 13.7131C11.6071 13.9408 12.2527 14.7102 12.3989 15.9677C12.4347 16.2862 12.4451 16.5942 12.4779 17.005ZM10.4902 17.0303C10.4678 16.6805 10.4559 16.4409 10.4335 16.2058C10.4201 16.0823 10.3948 15.9603 10.3575 15.8412C10.2859 15.4454 9.92357 15.1671 9.52246 15.1983C9.13029 15.1686 8.77838 15.4394 8.70829 15.8263C8.52935 16.5332 8.52935 17.2728 8.70829 17.9782C8.78136 18.3711 9.14818 18.6405 9.54632 18.5958C9.92358 18.6211 10.2606 18.3637 10.3336 17.9931C10.4037 17.6747 10.4559 17.3532 10.4917 17.0288V17.0303H10.4902ZM25.0677 16.0525C25.1541 15.3962 25.008 15.1939 24.3743 15.2236C23.8568 15.2668 23.3439 15.3427 22.8369 15.4513C22.4074 15.5287 22.0928 15.4201 22.0332 15.0867C21.9362 14.5376 21.9735 14.0658 22.4149 13.9334C23.4363 13.5985 24.5308 13.5435 25.5806 13.7756C26.5349 14.0033 26.9972 14.6328 26.9972 15.6611V19.2997C26.9972 19.5751 26.9972 19.8578 26.6691 19.965C26.3053 20.0974 25.8952 19.9858 25.6507 19.6852L25.5493 19.5393C24.9916 19.9843 24.2878 20.209 23.5735 20.1674C22.0227 20.1108 21.1325 18.636 21.8065 17.2327C22.1211 16.5645 22.7504 16.3546 23.4006 16.2505C23.9612 16.1671 24.5174 16.115 25.0677 16.0525ZM25.0975 17.124C24.7217 17.1806 24.3907 17.2118 24.0701 17.2818C23.7346 17.3249 23.4826 17.6062 23.4751 17.9425C23.405 18.2803 23.584 18.6226 23.9031 18.7566C24.2177 18.8786 24.8872 18.7566 25.0408 18.5423C25.0706 18.5006 25.087 18.4515 25.0885 18.4009C25.0975 17.9872 25.0975 17.5764 25.0975 17.1196V17.124ZM13.8259 13.8515V13.039C13.7976 12.7904 13.9586 12.5583 14.2017 12.4988C14.5223 12.3916 14.8488 12.3008 15.1799 12.2249C15.4184 12.1461 15.6764 12.274 15.7554 12.5121C15.7763 12.5761 15.7838 12.6431 15.7748 12.7101C15.7853 13.0598 15.7748 13.408 15.7748 13.7964H16.7083C17.1631 13.8069 17.3197 13.9542 17.3376 14.4245C17.3629 15.3799 17.3107 15.4334 16.3653 15.4334H15.8166C15.8017 15.5183 15.7912 15.6046 15.7868 15.6909V17.7059C15.7868 18.3339 15.9761 18.5259 16.5875 18.5705C17.1243 18.6092 17.2705 18.7283 17.2705 19.1643C17.2898 19.8608 17.1482 20.0959 16.5875 20.1287C16.1431 20.1614 15.6958 20.1391 15.2574 20.0617C14.3463 19.8772 13.8557 19.2878 13.8244 18.3265C13.7976 17.4871 13.814 16.6478 13.811 15.8129V15.4364H13.2608C13.0013 15.4573 12.7746 15.2653 12.7523 15.0063V14.9632C12.6762 14.3203 12.791 14.1491 13.4039 13.9765L13.8259 13.8515ZM20.6718 17.758C20.6718 18.8459 20.6926 19.9352 20.6718 21.0231C20.6658 22.2791 19.6429 23.2925 18.3843 23.2866C18.265 23.2866 18.1458 23.2762 18.0265 23.2568C17.5881 23.2018 17.4315 23.0291 17.4255 22.5752V22.1719C17.4449 21.7925 17.5627 21.66 17.94 21.5901C18.523 21.4814 18.7124 21.2627 18.7139 20.6555V14.4646C18.7139 13.9393 18.8481 13.7994 19.3745 13.7831H20.0902C20.5137 13.8024 20.6732 13.9557 20.6762 14.3813V17.7372L20.6718 17.758ZM29.4636 14.228C29.9795 13.8589 30.5938 13.6521 31.2276 13.6327C31.8568 13.6327 32.0015 13.7652 32 14.3873V14.667C32 15.0688 31.833 15.2117 31.4393 15.2534C31.0695 15.298 30.7012 15.3635 30.3374 15.4468C30.0928 15.4989 30.0004 15.6463 30.0048 15.9186C30.0242 17.0541 30.0048 18.1806 30.0048 19.3102C30.0048 19.8653 29.8841 19.9813 29.3219 19.9918H28.5107C28.2781 20.0111 28.0738 19.837 28.0544 19.6048C28.0514 19.5766 28.0529 19.5483 28.0559 19.52V14.295C28.038 14.0628 28.2125 13.8589 28.4451 13.8411H28.4466H28.466C28.8596 13.7741 29.2727 13.7131 29.4636 14.228Z" fill="black"/>
<path d="M20.4599 12.6788C20.8163 11.4035 20.688 10.7606 20.0632 10.6371C20.1587 11.0701 20.266 11.5151 19.8097 11.8157C19.5712 11.9734 19.3818 11.9124 18.9583 11.588C18.763 11.9883 18.8286 12.3872 18.9195 12.8143C18.3126 12.7086 17.834 12.4571 17.6118 11.8723C17.3822 11.3395 17.5089 10.7219 17.9264 10.3201C18.0726 10.1713 18.2306 10.0358 18.3991 9.9138C19.0821 9.40187 19.2148 8.90482 18.8539 8.13542C18.8375 8.09078 18.8241 8.04613 18.8152 8C19.5741 8.11459 20.2929 8.41967 20.9042 8.88398C22.2358 9.97035 22.0748 11.9243 20.6045 12.6416C20.5538 12.6446 20.5061 12.6565 20.4599 12.6788Z" fill="#EE4854"/>
</svg>
