<svg viewBox="0 0 32 32" fill="none" xmlns="http://www.w3.org/2000/svg">
<path d="M17.8223 17.589V19.0528C17.0647 19.4437 16.2216 19.6565 15.362 19.6738C13.1169 19.6738 11.7637 18.4022 11.7637 16.8053C11.7637 15.0754 13.3014 13.6559 15.2697 13.6559C15.689 13.6572 16.105 13.7272 16.4999 13.8629C16.7613 13.9368 16.9304 14.0403 17.115 14.0403C17.2995 14.0403 17.2995 13.8038 17.3149 13.6559H17.5302L17.7301 15.6372H17.4686C17.3814 15.2819 17.1892 14.9584 16.9151 14.7057C16.7056 14.5104 16.4575 14.3574 16.1854 14.2558C15.9134 14.1542 15.6229 14.1061 15.3312 14.1143C13.978 14.1143 13.1938 15.1345 13.1938 16.6722C13.1938 18.21 14.1625 19.2154 15.4388 19.2154C15.8342 19.2106 16.2233 19.1196 16.5768 18.9493V17.4411C16.5768 16.9532 16.4999 16.761 15.7618 16.761V16.5392H18.4682V16.761C17.7916 16.761 17.8223 16.968 17.8223 17.589ZM10.3797 15.1493V19.5555H10.026L5.45895 15.0014C5.47495 15.1191 5.4801 15.2378 5.47433 15.3563V18.1213C5.47433 18.9641 5.47433 19.2746 6.27395 19.2746V19.5111H4.12112V19.2893C4.9515 19.2893 4.9515 18.9197 4.9515 18.136V14.9866C4.9515 14.5135 4.9515 13.996 4.09037 13.996V13.789H6.12018L9.88762 17.4855C9.86617 17.3883 9.85586 17.2891 9.85687 17.1897V15.1493C9.85687 14.3361 9.88762 13.9812 9.088 13.9812V13.7742H11.2255V13.9812C10.4258 13.9812 10.3797 14.3065 10.3797 15.1493ZM0 19.5259V19.2893C0.522829 19.2893 0.876508 19.245 0.876508 18.5353V14.7649C0.876508 14.0256 0.599716 13.996 0 13.996V13.789H3.02933V13.996C2.41424 13.996 2.15283 14.0108 2.15283 14.7649V18.5353C2.15283 19.2598 2.46037 19.2893 3.02933 19.2893V19.5259H0Z" fill="#000066"/>
<path d="M28.9555 15.7555L28.3096 15.2824L28.0021 15.3415L27.8022 15.7555L26.6489 15.9034L25.88 15.1937L25.1726 13.2715L24.9112 12.5618L24.2961 12.4435L23.5888 12.7392L22.6508 12.4287L22.1126 12.5618L21.928 12.9906L21.6051 13.5377L21.5128 14.4544L21.8665 15.7112L21.559 16.1548L21.9742 17.0567L21.6051 17.6777L21.3591 18.3874L20.8516 18.3283L20.2211 18.6092L19.9905 18.9345L20.0212 19.3781L20.175 19.452L21.0823 19.4668L22.9429 19.4372L23.2043 19.5259H28.5557L29.5552 18.831L29.3707 16.6131L28.9555 15.7555ZM29.8627 13.8186L29.4937 13.1089L29.4168 13.0645L29.2015 13.0054L28.5095 13.2271L28.4788 13.6116L28.5095 13.6559C28.5392 13.7091 28.5754 13.7587 28.6172 13.8038C28.7815 13.8791 28.951 13.9433 29.1246 13.996L29.8627 13.8186Z" fill="white"/>
<path d="M23.7424 19.526C23.6619 19.354 23.62 19.1676 23.6193 18.9789C23.6098 18.8624 23.6309 18.7454 23.6809 18.6389L23.4502 18.6832C23.3887 18.7572 23.3579 18.8015 23.3579 18.8311L23.4656 18.8015C23.4963 18.8015 23.5117 18.8459 23.5271 18.8754C23.5271 18.9789 23.3733 18.9789 23.3426 19.0233C23.281 19.2303 23.4656 19.3634 23.4963 19.526H23.7424ZM32 16.8646C31.9928 15.9417 31.6058 15.0592 30.9236 14.4101C30.616 14.1144 30.3085 13.9813 30.0317 13.7004C29.9058 13.5799 29.8018 13.44 29.7241 13.2864C29.6365 13.1951 29.5323 13.1199 29.4166 13.0646L29.4935 13.242H29.4627C29.3498 13.2347 29.2422 13.1933 29.1552 13.1237L29.2474 13.035C29.2321 13.0054 29.1552 13.0054 29.1244 13.0054C28.7708 12.9463 28.4632 13.1237 28.1249 13.1829V13.2272C28.3402 13.2864 28.3863 13.5377 28.494 13.6708H28.617L28.7708 13.7004C28.7666 13.6597 28.7563 13.6198 28.74 13.5821C28.7472 13.5729 28.7564 13.5655 28.7671 13.5603C28.7778 13.5552 28.7896 13.5525 28.8015 13.5525C28.8134 13.5525 28.8252 13.5552 28.8359 13.5603C28.8466 13.5655 28.8559 13.5729 28.863 13.5821C28.9707 13.6412 29.1244 13.5377 29.2321 13.7004C29.1057 13.6863 28.9778 13.7068 28.863 13.7595C28.863 13.7891 28.9245 13.8187 28.9091 13.863C28.8015 13.8187 28.6785 13.863 28.6324 13.7891H28.6016C28.7426 13.9404 28.9231 14.0528 29.1244 14.1144C29.4012 14.1587 29.6473 14.0257 29.9087 14.0996C30.4032 14.3459 30.8189 14.7167 31.1114 15.1724C31.4039 15.6281 31.5622 16.1517 31.5694 16.6871C31.5694 18.1953 30.6622 18.8015 30.1086 18.8015C29.9861 18.7954 29.8683 18.7542 29.7703 18.6832C29.8479 18.4137 29.8842 18.1348 29.8779 17.8552C29.8885 17.0073 29.583 16.1838 29.0168 15.5338C28.7861 15.312 28.5247 15.1198 28.2479 15.1198C28.1895 15.1132 28.1303 15.119 28.0744 15.1369C28.0186 15.1548 27.9676 15.1843 27.925 15.2233C27.8714 15.2661 27.8295 15.3207 27.8027 15.3826C27.7759 15.4444 27.7651 15.5115 27.7712 15.5782C27.5708 15.706 27.3351 15.773 27.0946 15.7704C26.8011 15.761 26.5194 15.6568 26.295 15.4747V15.1494C26.2335 15.1346 26.0182 15.0015 26.1412 14.9128C26.181 14.9318 26.2173 14.9567 26.2489 14.9868C26.2501 14.8356 26.2075 14.6871 26.1258 14.558C26.0661 14.5602 26.007 14.5447 25.9567 14.5136C25.8798 14.4555 25.83 14.3704 25.8183 14.277C25.8952 14.3805 26.0028 14.3362 26.0643 14.3953C25.9567 14.144 26.0028 14.0405 25.8029 13.6856C25.7568 13.4934 25.5723 13.3899 25.4339 13.2716C25.3724 13.2272 25.357 13.1681 25.2801 13.1681C25.2032 13.1681 25.1878 13.035 25.1878 12.9759C25.231 12.9911 25.2723 13.0109 25.3109 13.035C25.1878 12.7541 25.0956 12.4436 24.8188 12.2957L24.7573 12.3253H24.419C24.4828 12.286 24.5496 12.2514 24.6189 12.2218C24.588 12.1901 24.5491 12.1666 24.506 12.1536C24.4629 12.1407 24.417 12.1387 24.3728 12.1479C24.3267 12.1479 24.2344 12.2218 24.1576 12.2218H24.1422C24.1422 12.1626 24.1268 12.0739 24.2498 12.0444C24.1226 12.0231 23.9926 12.0231 23.8654 12.0444C23.8346 12.1331 23.7731 12.1922 23.7731 12.2809C23.7116 12.3253 23.6962 12.3844 23.6193 12.4436C23.6393 12.3181 23.6702 12.1945 23.7116 12.0739C23.6193 12.1035 23.5117 12.1626 23.4656 12.1626C23.3214 12.0859 23.1658 12.031 23.0043 12C23.1273 12.0887 23.0658 12.2218 23.0811 12.3253L23.0043 12.2957C22.9735 12.207 22.8659 12.1479 22.8505 12.0444C22.7345 12.0473 22.6221 12.0833 22.5276 12.1479V12.1626C22.5661 12.1716 22.6023 12.1881 22.6341 12.2109C22.6658 12.2338 22.6923 12.2627 22.7121 12.2957C22.5583 12.2957 22.4507 12.2218 22.3123 12.2218L22.2815 12.207C22.2225 12.2361 22.1702 12.2763 22.1277 12.3253C21.9854 12.4315 21.8785 12.5754 21.8202 12.7393L21.9432 12.7541C21.851 12.7837 21.8048 12.8872 21.7279 12.9019V13.2272C21.6409 13.2879 21.572 13.3695 21.528 13.4638C21.4287 13.8253 21.3872 14.1992 21.405 14.5727C21.4004 14.6002 21.3879 14.6259 21.3689 14.6468C21.3498 14.6677 21.3251 14.683 21.2974 14.691V15.0163C21.3557 14.9635 21.4173 14.9141 21.4819 14.8685V15.1494C21.405 15.1494 21.3281 15.2529 21.3281 15.2973L21.3589 15.5634C21.3555 15.589 21.3609 15.615 21.3743 15.6373C21.3743 15.593 21.4204 15.5634 21.4819 15.5338C21.5159 15.505 21.5596 15.4892 21.6049 15.4895C21.5508 15.5613 21.5092 15.6413 21.4819 15.726L21.4204 15.7852C21.4069 15.8032 21.3965 15.8232 21.3896 15.8443C21.4807 16.2555 21.6147 16.6567 21.7894 17.042C21.5667 17.4478 21.4012 17.8804 21.2974 18.3284C21.1924 18.2371 21.0543 18.1893 20.9129 18.1953C20.8453 18.2014 20.7799 18.2218 20.7214 18.255C20.663 18.2883 20.6128 18.3335 20.5746 18.3875C20.5145 18.3561 20.4461 18.3422 20.3779 18.3475C20.3096 18.3527 20.2444 18.3769 20.1902 18.4171C20.1304 18.4552 20.0828 18.5086 20.0529 18.5713C20.023 18.634 20.012 18.7035 20.021 18.7719C19.9364 18.8493 19.8867 18.9555 19.8827 19.0677C19.8748 19.2356 19.9233 19.4014 20.021 19.5408H23.2503C23.2261 19.4758 23.1896 19.4157 23.1426 19.3634C23.1007 19.2293 23.0902 19.0879 23.1119 18.9494C23.1705 18.8241 23.2426 18.7052 23.3272 18.5945C23.3579 18.5354 23.3272 18.5354 23.3579 18.5206L23.5117 18.491C23.5886 18.491 23.6655 18.4319 23.7577 18.4319C23.8346 18.5206 23.8346 18.3727 23.9423 18.3284C24.0457 18.2995 24.1555 18.2995 24.2589 18.3283C24.3624 18.3571 24.4552 18.4135 24.5266 18.491V18.5354H24.4343C24.372 18.5009 24.303 18.4792 24.2316 18.4716C24.1601 18.4639 24.0878 18.4706 24.0192 18.491L24.0038 18.5945V18.698C24.0807 18.698 24.1576 18.7867 24.2344 18.8163C24.2639 18.7804 24.3012 18.7512 24.3437 18.7307C24.3862 18.7103 24.4329 18.6991 24.4805 18.698C24.512 18.696 24.5437 18.7002 24.5735 18.7105C24.6033 18.7207 24.6305 18.7367 24.6536 18.7575C24.6767 18.7783 24.6951 18.8034 24.7076 18.8314C24.7201 18.8593 24.7266 18.8894 24.7265 18.9198V19.1416C24.8164 19.2121 24.9214 19.2626 25.0341 19.2894C25.019 19.3151 24.9963 19.3358 24.9689 19.349C24.9415 19.3622 24.9107 19.3672 24.8803 19.3634H24.6958C24.6804 19.3634 24.6342 19.3634 24.6342 19.2894C24.5753 19.3686 24.5238 19.4528 24.4805 19.5408H26.9716L26.864 19.3486C26.8273 19.2136 26.8117 19.074 26.8178 18.9346L27.0485 18.6389C27.1869 18.6389 27.2945 18.5945 27.5252 18.5649C27.5713 18.5058 27.5252 18.4762 27.7251 18.4762C27.8297 18.4707 27.9343 18.4858 28.0326 18.5206V18.6093C28.0173 18.6537 27.8942 18.5649 27.8327 18.5945C27.7712 18.6241 27.8635 18.6537 27.8635 18.698C27.8942 18.7276 27.6636 18.6537 27.6636 18.6537L27.6021 18.8015L27.7251 18.9494C27.7712 18.9937 27.6636 19.0677 27.6636 19.1268C27.6175 19.0972 27.5406 19.0381 27.5406 19.0677C27.5194 19.2245 27.5091 19.3826 27.5098 19.5408H27.7405L27.7712 19.1859C27.7866 18.9789 28.048 18.6093 28.2018 18.6093C28.2819 18.6145 28.3579 18.6458 28.4171 18.698C28.4478 18.7719 28.5555 18.8163 28.5555 18.8459C28.5555 18.8754 28.494 18.9198 28.4017 18.9198C28.3556 18.9198 28.3556 18.8607 28.2941 18.8163L28.1557 18.9346C28.1557 18.9346 28.3094 19.0677 28.3094 19.1416C28.315 19.1795 28.3109 19.2181 28.2975 19.2542C28.2841 19.2903 28.2618 19.3226 28.2325 19.3486L28.0941 19.0972C28.0326 19.0972 27.9404 19.2303 27.9404 19.2894C27.9404 19.3486 27.8789 19.4077 27.8789 19.5408H29.2013C29.355 19.5364 29.5043 19.4903 29.6319 19.4077H29.8933C30.1393 19.4165 30.3844 19.3748 30.6124 19.2856C30.8403 19.1964 31.046 19.0616 31.2157 18.8902C31.6924 18.4023 32 17.6186 32 16.8646ZM27.3868 18.7424L27.1715 18.7572C27.201 18.7735 27.2252 18.7973 27.2415 18.826C27.2578 18.8547 27.2655 18.8871 27.2638 18.9198C27.2617 18.9538 27.2525 18.9871 27.2366 19.0176C27.2208 19.0481 27.1986 19.0752 27.1715 19.0972C27.1254 19.0529 27.1254 18.9789 27.0792 18.9198C27.0485 18.9198 27.0177 19.0233 27.0177 19.0677C27.029 19.2303 27.0818 19.3877 27.1715 19.526H27.3714C27.3385 19.3601 27.318 19.1921 27.3099 19.0233C27.3195 18.9215 27.3455 18.8218 27.3868 18.7276V18.7424ZM24.5727 18.9937C24.5727 18.905 24.5112 18.8902 24.419 18.8902C24.3728 18.8902 24.2806 18.9494 24.2806 18.9937L24.2498 19.526H24.3882C24.4653 19.3489 24.527 19.1659 24.5727 18.9789V18.9937ZM24.1114 18.9642L23.9269 18.8015C23.8808 18.8015 23.8192 18.9198 23.8192 18.9642C23.8225 19.1559 23.8589 19.3458 23.9269 19.526H24.0807L24.1114 18.9642ZM29.7241 13.7891C29.707 13.7512 29.6792 13.7187 29.6439 13.6952C29.6086 13.6717 29.5671 13.6581 29.5242 13.656C29.4627 13.5821 29.3705 13.4786 29.2936 13.4786C29.3551 13.4786 29.4474 13.4047 29.555 13.4047L29.7088 13.656L29.7241 13.7891ZM29.0783 13.3455H28.8476C28.8015 13.2864 28.74 13.3455 28.6939 13.3455C28.6477 13.3455 28.6324 13.3455 28.5401 13.2864C28.6495 13.2748 28.7547 13.2394 28.8476 13.1829C28.9399 13.242 29.0168 13.2716 29.0783 13.3455ZM28.5708 15.7113C28.4601 15.6543 28.3408 15.6144 28.2172 15.593C28.1222 15.6051 28.0321 15.6408 27.9558 15.6965C27.8942 15.6225 28.0019 15.4599 28.0941 15.4008C28.1175 15.3878 28.144 15.3809 28.171 15.3809C28.198 15.3809 28.2245 15.3878 28.2479 15.4008C28.2479 15.5338 28.4017 15.4747 28.494 15.5043C28.5331 15.5625 28.5593 15.628 28.5708 15.6965V15.7113ZM28.5401 16.007L28.3248 15.9774C28.2647 15.9749 28.2049 15.9871 28.1511 16.013C28.0973 16.0389 28.0512 16.0775 28.0173 16.1253C28.0011 16.0983 27.9925 16.0677 27.9925 16.0365C27.9925 16.0054 28.0011 15.9748 28.0173 15.9478C28.0846 15.8716 28.1767 15.8195 28.2787 15.8C28.3433 15.7954 28.4074 15.814 28.4585 15.8522C28.5097 15.8905 28.5442 15.9456 28.5555 16.007H28.5401ZM29.0322 16.4506C28.8582 16.3546 28.6634 16.2989 28.4632 16.2879C28.3107 16.3189 28.1683 16.3849 28.048 16.4801L28.0019 16.2879C28.1249 16.2731 28.1249 16.1696 28.2172 16.1696L28.4324 16.1548C28.494 16.1548 28.5247 16.1105 28.5401 16.1105C28.6477 16.1105 28.6016 16.214 28.6785 16.214C28.7554 16.214 28.7861 16.1696 28.8323 16.1696C28.9399 16.1696 29.0168 16.3323 29.0322 16.4653V16.4506ZM29.1091 16.8941C28.9553 16.8941 28.8015 16.8646 28.7861 16.8054C28.7708 16.7463 28.7861 16.6871 28.6785 16.6871C28.6324 16.6871 28.5708 16.7463 28.5708 16.7463C28.5247 16.7611 28.4171 16.6871 28.4171 16.7463C28.4171 16.8498 28.3248 16.8941 28.2172 16.8941C28.1743 16.8936 28.1322 16.8834 28.0941 16.8646V16.6576C28.3709 16.6576 28.3556 16.5836 28.4786 16.5836C28.5555 16.5836 28.617 16.628 28.6785 16.628C28.7861 16.628 28.7246 16.5836 28.8323 16.5836C28.9399 16.5836 28.986 16.6576 29.0475 16.6871C29.0475 16.7463 29.1091 16.835 29.1091 16.9089V16.8941ZM28.9091 17.3377C28.8476 17.3377 28.6939 17.3081 28.6939 17.249C28.6939 17.1898 28.6477 17.1455 28.5401 17.1455C28.4501 17.1506 28.3616 17.1706 28.2787 17.2046C28.2402 17.1602 28.2091 17.1103 28.1864 17.0568C28.2794 17.0183 28.3779 16.9933 28.4786 16.9828C28.6324 16.9828 28.7861 16.9828 28.7861 17.042C28.7861 17.1011 28.9091 17.1455 28.9091 17.3525V17.3377ZM25.1878 14.144L25.1571 14.351L24.9725 14.3953L25.0802 13.9517C25.1258 14.0103 25.162 14.0751 25.1878 14.144ZM29.3243 18.077C29.3325 18.1717 29.3052 18.2661 29.2474 18.3431L29.1244 18.1657C29.1706 18.0918 29.1706 18.0179 29.2321 17.9144L29.3243 18.077ZM28.8015 17.8109C28.6477 17.8109 28.74 17.5151 28.4324 17.5151C28.3709 17.5151 28.3248 17.6186 28.2479 17.6334V17.4856C28.2534 17.4528 28.2676 17.422 28.2892 17.3961C28.3107 17.3702 28.3389 17.35 28.3709 17.3377C28.5247 17.3377 28.4786 17.3969 28.6016 17.4264C28.6632 17.4593 28.7313 17.4794 28.8015 17.4856V17.8109ZM27.4637 16.6428C27.2792 16.5393 27.1561 16.3471 27.0024 16.1696C27.1561 16.1696 27.2176 16.3323 27.3407 16.3618C27.3867 16.3961 27.428 16.4359 27.4637 16.4801V16.6428ZM25.6338 15.1198C25.5108 15.1198 25.4492 15.0607 25.3724 14.9424C25.3627 14.8638 25.3627 14.7844 25.3724 14.7058C25.4185 14.7945 25.4185 14.8241 25.4646 14.8685C25.5415 14.8241 25.5415 14.9276 25.5723 14.9572C25.6021 15.0077 25.6229 15.0627 25.6338 15.1198ZM29.1706 18.6241C29.1428 18.6596 29.122 18.6997 29.1091 18.7424C29.1091 18.6389 28.9707 18.5797 28.8938 18.4171L28.9707 18.2692C29.0122 18.2886 29.0481 18.3178 29.0749 18.3539C29.1018 18.3901 29.1188 18.4321 29.1244 18.4762C29.1125 18.5047 29.1125 18.5365 29.1244 18.5649C29.1244 18.5649 29.1706 18.5649 29.1706 18.6241ZM28.74 18.0326C28.7333 18.1032 28.7178 18.1727 28.6939 18.2396C28.5401 18.2249 28.5401 18.0622 28.5401 18.0326C28.4325 17.9144 28.2787 18.0179 28.1864 18.0179C28.1403 17.8996 28.2018 17.8996 28.2018 17.8109C28.2633 17.8109 28.3248 17.7665 28.3863 17.8109C28.494 17.7665 28.5401 17.87 28.6631 17.87C28.6846 17.9259 28.7103 17.9803 28.74 18.0326ZM27.6636 17.1898C27.6636 17.2786 27.6175 17.3377 27.6482 17.4264C27.6021 17.2934 27.5098 17.1751 27.4791 17.0568C27.4791 17.0272 27.4483 17.0272 27.4944 17.0124C27.5406 16.9976 27.6021 17.0124 27.6021 17.0272C27.6335 17.0716 27.6545 17.1221 27.6636 17.1751V17.1898ZM25.7875 15.5634C25.7722 15.6521 25.6799 15.5634 25.6645 15.5634H25.4646C25.4492 15.5338 25.4185 15.519 25.4185 15.4747C25.5108 15.4599 25.5723 15.4155 25.6338 15.4599C25.6953 15.5043 25.726 15.5782 25.7875 15.5782V15.5634ZM26.2489 16.0365C26.1964 16.0716 26.1333 16.0892 26.0694 16.0865C26.0055 16.0839 25.9443 16.0611 25.8952 16.0218L26.0643 15.9478C26.1266 15.9858 26.1938 16.0156 26.2642 16.0365H26.2489ZM27.356 17.2046L27.3407 17.6186C27.2792 17.6186 27.2791 17.5743 27.2791 17.4856C27.2527 17.3696 27.2167 17.2559 27.1715 17.1455C27.1026 16.977 27.0204 16.8139 26.9255 16.6576C26.9101 16.5688 26.8025 16.5393 26.7102 16.4653C26.7651 16.4579 26.821 16.462 26.8741 16.4773C26.9271 16.4927 26.9762 16.5188 27.0177 16.5541C27.0177 16.5984 27.0485 16.6132 27.11 16.6723C27.2638 16.6723 27.2176 16.8646 27.3407 16.9533L27.2176 17.0863C27.2792 17.1307 27.3407 17.1455 27.3714 17.2046H27.356ZM26.5257 16.5984C26.5257 16.6576 26.4795 16.6723 26.4334 16.7167C26.3984 16.6725 26.3723 16.6223 26.3565 16.5688C26.3547 16.5035 26.3652 16.4384 26.3873 16.3766C26.4334 16.4506 26.5257 16.5245 26.5257 16.5984ZM28.5247 18.4614L28.4786 18.5058C28.3884 18.4614 28.2875 18.441 28.1864 18.4467C28.1864 18.3579 28.1249 18.2544 28.0788 18.2544C27.9558 18.2544 27.9711 18.3431 27.8635 18.3431L28.0634 18.1509C28.0788 18.1066 28.0788 18.1066 28.1249 18.1066C28.1864 18.1509 28.2172 18.1805 28.2787 18.1805C28.2815 18.2205 28.2763 18.2607 28.2633 18.2988C28.3248 18.3431 28.3556 18.2692 28.4017 18.3431C28.4632 18.3727 28.5247 18.3875 28.5247 18.4762V18.4614ZM26.7871 17.042C26.7871 17.0716 26.7256 17.1159 26.7102 17.1159C26.6485 17.0636 26.601 16.9976 26.5718 16.9237C26.571 16.8458 26.5922 16.7691 26.6333 16.7019L26.7102 16.7315C26.7409 16.7315 26.7102 16.8202 26.7256 16.8793C26.8025 16.9237 26.8486 16.9976 26.8025 17.042H26.7871ZM25.1571 15.0607C24.893 14.9165 24.5988 14.8306 24.2959 14.8093C24.304 14.8591 24.2987 14.91 24.2806 14.9572C24.53 15.0576 24.763 15.192 24.9725 15.3564V15.5486C24.7808 15.3273 24.5314 15.1589 24.2498 15.0607C24.2498 15.105 24.1576 15.1494 24.1422 15.2381C23.9956 15.1206 23.8214 15.0394 23.6347 15.0015C23.5732 15.0015 23.5425 14.7797 23.5425 14.7797C23.5921 14.7628 23.6372 14.7355 23.6745 14.6997C23.7117 14.6638 23.7402 14.6205 23.7577 14.5727H23.8346C23.8961 14.5727 23.8961 14.5432 23.8961 14.4692C23.8961 14.351 23.6193 14.351 23.4963 14.351C23.3749 14.3323 23.2504 14.3532 23.1426 14.4101C23.0965 14.4101 23.1273 14.4692 23.1273 14.5136C23.1273 14.558 23.1888 14.5727 23.1888 14.5727L23.3118 14.5432C23.3118 14.6615 23.3426 14.7206 23.4656 14.7797V15.0015C23.249 15.014 23.0384 15.0748 22.8505 15.179C22.7898 15.1396 22.7376 15.0894 22.6967 15.0311C22.4444 15.135 22.2067 15.2692 21.9893 15.4303V15.2825C22.1776 15.1431 22.3845 15.0287 22.6044 14.9424V14.7945C22.5122 14.7502 22.4353 14.7945 22.343 14.7945C22.1645 14.8168 21.995 14.883 21.851 14.9868C21.8503 14.942 21.8451 14.8975 21.8356 14.8537C22.0693 14.7114 22.3438 14.6441 22.6198 14.6615V14.5875C22.6044 14.5432 22.6044 14.484 22.5583 14.484C22.4222 14.3683 22.3302 14.2122 22.2969 14.0405L22.3892 14.0109C22.343 13.8926 22.2969 13.5821 22.3892 13.4786C22.2758 13.426 22.18 13.3441 22.1124 13.242C22.0654 13.1527 22.0292 13.0584 22.0047 12.9611L22.1739 12.6654C22.198 12.6667 22.222 12.6619 22.2436 12.6515C22.2651 12.6412 22.2835 12.6255 22.2969 12.6062C22.4045 12.5914 22.4507 12.4879 22.5891 12.5471C22.6687 12.5551 22.7465 12.5751 22.8197 12.6062C22.8179 12.6258 22.8211 12.6455 22.8292 12.6636C22.8372 12.6817 22.8498 12.6975 22.8659 12.7097C23.0043 12.7097 23.0043 12.8428 23.0658 12.9463C23.116 12.9583 23.1678 12.9633 23.2195 12.9611C23.3733 13.0054 23.4656 13.0054 23.5117 13.0498C23.676 12.9638 23.8652 12.9326 24.0499 12.9611C24.0865 12.8794 24.1173 12.7954 24.1422 12.7097C24.1576 12.7689 24.1576 12.7097 24.2037 12.7097C24.2806 12.6506 24.3882 12.5471 24.5266 12.5914C24.6189 12.6506 24.7726 12.6062 24.8495 12.7097L25.0341 13.0054C24.9572 13.1237 25.0341 13.3012 24.8957 13.3603L24.7726 13.4786C24.7265 13.4786 24.7265 13.5229 24.665 13.5229C24.7147 13.6853 24.6982 13.8598 24.6189 14.0109C24.665 13.9813 24.7265 13.9813 24.7265 13.9222V14.07C24.7168 14.184 24.6617 14.2899 24.5727 14.3657C24.5266 14.484 24.419 14.6615 24.2806 14.6615V14.7206C24.5872 14.7245 24.8882 14.8007 25.1571 14.9424V15.0607ZM26.0182 16.3471L25.9106 16.3914C25.8298 16.3962 25.7488 16.3856 25.6723 16.3602C25.5957 16.3348 25.5252 16.2952 25.4646 16.2436C25.5569 16.2436 25.6645 16.1401 25.6645 16.1401C25.7619 16.2372 25.8837 16.3085 26.0182 16.3471ZM25.4185 15.8887C25.2955 15.8887 25.1571 15.9478 25.0802 15.8295L25.2186 15.6965L25.4185 15.8887ZM27.1715 17.8109C27.1715 17.9144 27.0331 18.0326 26.987 18.1214C27.0331 18.0179 27.0331 17.8109 26.987 17.8109C26.9408 17.8109 26.864 17.8109 26.864 17.7665L26.8793 17.5891C26.8793 17.5004 26.8178 17.456 26.8178 17.4116C26.8178 17.2934 26.9716 17.2638 27.0177 17.1898C27.0343 17.2776 27.0394 17.367 27.0331 17.456C27.0331 17.5004 27.0946 17.6334 27.0331 17.7369C27.0331 17.7813 27.1715 17.7369 27.1715 17.8109ZM26.6794 17.5891C26.6794 17.7074 26.5872 17.8109 26.5718 17.9291C26.5776 17.8208 26.5389 17.7146 26.4642 17.6334C26.4642 17.5891 26.5257 17.5891 26.4795 17.5151C26.4795 17.5151 26.3565 17.456 26.3565 17.3673C26.3565 17.2786 26.4334 17.2194 26.4795 17.1603C26.4795 17.1455 26.5718 17.2046 26.5718 17.3377C26.5702 17.3788 26.5597 17.419 26.541 17.456C26.5257 17.5151 26.6641 17.5151 26.6641 17.5891H26.6794ZM24.911 16.1105C24.8034 16.1401 24.7111 16.0365 24.6035 16.007C24.5792 15.9067 24.5484 15.8079 24.5112 15.7113C24.6035 15.7704 24.8034 15.7704 24.7573 15.9478C24.7573 16.007 24.8495 16.0365 24.911 16.1253V16.1105ZM25.5108 16.7019C25.4045 16.7111 25.2977 16.6906 25.2032 16.6428C25.1105 16.6052 25.0268 16.5499 24.9572 16.4801C25.0288 16.4392 25.1066 16.4092 25.1878 16.3914C25.2732 16.5094 25.3769 16.6142 25.4954 16.7019H25.5108ZM21.9278 13.5377L21.7741 13.5821V13.4638C21.8176 13.3988 21.8692 13.3393 21.9278 13.2864V13.5377ZM24.665 16.3914C24.5727 16.421 24.419 16.4506 24.3882 16.3618C24.3437 16.2877 24.3202 16.2035 24.3202 16.1179C24.3202 16.0322 24.3437 15.9481 24.3882 15.8739C24.4215 15.9855 24.4472 16.0991 24.4651 16.214C24.4805 16.2879 24.6189 16.3323 24.6496 16.3914H24.665ZM24.0499 15.2677C24.0436 15.4185 23.9776 15.5613 23.8654 15.6669C23.8604 15.5941 23.8275 15.5256 23.7731 15.4747L23.7577 15.5338C23.7383 15.6019 23.7229 15.671 23.7116 15.7408C23.6805 15.7613 23.6449 15.7746 23.6076 15.7797C23.5702 15.7849 23.5322 15.7817 23.4963 15.7704V15.7113C23.4788 15.6537 23.4736 15.5934 23.4809 15.5338L23.4502 15.519C23.3887 15.5338 23.3887 15.5782 23.3887 15.6225C23.3552 15.6659 23.334 15.7168 23.3272 15.7704C23.2554 15.7738 23.1847 15.7528 23.1273 15.7113V15.519L23.1119 15.4747L23.0043 15.5782C22.9649 15.5335 22.9351 15.4817 22.9166 15.4259C22.8981 15.3701 22.8913 15.3113 22.8966 15.2529C23.0559 15.1766 23.2305 15.1345 23.4084 15.1294C23.5862 15.1242 23.7632 15.1563 23.9269 15.2233L24.0499 15.2677ZM25.1571 16.9237H25.0802C24.8495 16.9976 24.665 16.8646 24.4651 16.7315C24.5886 16.6901 24.7188 16.6701 24.8495 16.6723L24.911 16.8054C24.9972 16.8362 25.0797 16.8759 25.1571 16.9237ZM21.9586 13.8187L21.851 13.937C21.8817 14.144 21.7894 14.2918 21.7894 14.4692L21.6818 14.144C21.7011 14.0498 21.7375 13.9597 21.7894 13.8778L21.9586 13.8187ZM24.1576 16.4801C24.0499 16.421 23.85 16.3914 23.8961 16.2731C23.9291 16.2052 23.9827 16.1484 24.0499 16.1105C24.0622 16.2389 24.0987 16.3642 24.1576 16.4801ZM26.1412 18.5797H26.1258C26.0797 18.5206 26.0643 18.4762 26.0182 18.4762C26.0797 18.2544 25.9567 18.0622 25.9106 17.8848V17.8109C25.9721 17.9144 26.1566 18.0179 26.1258 18.1214C26.1394 18.2688 26.1446 18.4169 26.1412 18.5649V18.5797ZM25.6492 17.8109C25.5415 17.8109 25.4646 17.8109 25.3877 17.7074C25.3724 17.7074 25.3416 17.6482 25.3109 17.6926C25.2032 17.7665 25.0956 17.6186 24.9725 17.6482C24.9109 17.7105 24.83 17.752 24.7419 17.7665V17.7517C24.7448 17.7163 24.7578 17.6824 24.7795 17.6537C24.8012 17.625 24.8308 17.6026 24.8649 17.5891C24.9879 17.6186 25.0956 17.3525 25.234 17.5004C25.284 17.5133 25.336 17.5183 25.3877 17.5151C25.5415 17.5891 25.5876 17.7074 25.6492 17.8109ZM23.6809 16.1401C23.6809 16.2879 23.6655 16.4801 23.5117 16.5393L23.4656 16.3323C23.5484 16.2808 23.6213 16.2157 23.6809 16.1401ZM24.3882 17.042C24.3225 17.0935 24.2421 17.1245 24.1576 17.1307C24.0231 17.0176 23.9042 16.8884 23.8039 16.7463L24.1576 16.8054C24.2454 16.8785 24.3276 16.9575 24.4036 17.042H24.3882ZM25.6799 18.2249C25.5876 18.1657 25.4646 18.1657 25.4185 18.0622C25.3375 18.0467 25.2548 18.0418 25.1725 18.0474C25.0811 18.0622 24.9882 18.0672 24.8957 18.0622C24.8649 18.0622 24.8957 18.0474 24.8495 18.0179C24.7082 18.0367 24.5751 18.093 24.4651 18.1805L24.5727 17.9439C24.6353 17.9334 24.6969 17.9185 24.7573 17.8996C24.8273 17.8805 24.8997 17.8706 24.9725 17.87V17.8996C25.2186 17.8996 25.48 17.87 25.6492 18.0622L25.6799 18.2249ZM23.2195 16.4801C23.0965 16.3618 22.9889 16.2583 22.9889 16.1253C23.0537 16.1209 23.1183 16.1365 23.1734 16.1696C23.1734 16.2731 23.2195 16.3471 23.2195 16.4801ZM22.8197 15.8887L22.7428 16.1401C22.671 16.0257 22.6191 15.9008 22.5891 15.7704L22.8197 15.8887ZM25.8952 18.6389C25.8572 18.72 25.8263 18.8041 25.8029 18.8902C25.7568 18.7572 25.7107 18.5797 25.5569 18.5797C25.5523 18.543 25.5387 18.5077 25.5173 18.4769C25.496 18.4461 25.4674 18.4205 25.4339 18.4023H25.2801C25.2801 18.4762 25.4185 18.4762 25.3262 18.5797C25.4185 18.6389 25.48 18.6389 25.5261 18.7276C25.5569 18.8015 25.5261 18.8754 25.5415 18.9198L25.4185 18.9937C25.4185 18.8902 25.4339 18.6832 25.2955 18.6389C25.1571 18.6832 25.1417 18.5206 25.0494 18.4762C25.0187 18.4762 25.0187 18.3727 24.9418 18.4171C24.8342 18.4762 24.7111 18.4171 24.6035 18.4762L24.7111 18.2988C24.8034 18.2396 24.8803 18.2692 24.9725 18.2396L25.1417 18.2249C25.3138 18.2444 25.4807 18.2946 25.6338 18.3727C25.6714 18.3899 25.7031 18.4172 25.7249 18.4513C25.7468 18.4854 25.7578 18.5249 25.7568 18.5649C25.7875 18.5649 25.8798 18.5649 25.8798 18.6389H25.8952ZM24.2037 17.6778H24.1576C24.0799 17.6559 24.007 17.6209 23.9423 17.5743C23.9266 17.5363 23.9162 17.4966 23.9115 17.456H24.0807L24.2037 17.6778ZM22.5429 16.1992C22.4068 16.1493 22.2891 16.0619 22.2046 15.9478C22.1673 15.8687 22.1464 15.7833 22.1431 15.6965C22.176 15.6989 22.2077 15.7098 22.2347 15.728C22.2618 15.7462 22.2832 15.7711 22.2969 15.8V15.8295C22.4129 15.932 22.4934 16.0661 22.5276 16.214L22.5429 16.1992ZM23.5732 16.9385C23.5578 17.042 23.4809 17.0863 23.3733 17.2342L23.0658 17.3525C23.0658 17.2934 23.1426 17.2638 23.1888 17.2046C23.2475 17.1357 23.299 17.0614 23.3426 16.9828C23.407 16.9438 23.4817 16.9233 23.5578 16.9237L23.5732 16.9385ZM25.1417 18.9198L25.0802 18.9789C25.0187 18.9198 25.0648 18.7572 24.9572 18.7424C24.8495 18.7276 24.7573 18.6389 24.7111 18.6241L24.8034 18.5797C24.8282 18.5706 24.8555 18.5706 24.8803 18.5797C24.9264 18.6093 24.9725 18.6389 24.9725 18.6832C25.0187 18.7424 25.0802 18.6832 25.1263 18.7424C25.1452 18.8001 25.1452 18.862 25.1263 18.9198H25.1417ZM23.2195 16.7758C23.158 16.9089 23.0811 17.0124 22.9581 17.0716C22.8567 17.0923 22.752 17.0923 22.6506 17.0716C22.7121 17.0124 22.7736 16.9976 22.8659 16.9385L23.035 16.7906L23.2195 16.7758ZM23.6501 17.7221C23.6139 17.75 23.571 17.7687 23.5253 17.7764C23.4796 17.7842 23.4326 17.7808 23.3887 17.7665L23.2657 17.5891H23.5732L23.6501 17.7221ZM22.0816 16.1548C21.974 16.2583 21.8663 16.3027 21.8356 16.4358C21.8347 16.374 21.8189 16.3133 21.7894 16.2583C21.8063 16.1985 21.8444 16.1462 21.8971 16.1105L22.0816 16.1548ZM22.3276 16.4653C22.3179 16.5793 22.2629 16.6852 22.1739 16.7611C22.155 16.7869 22.1344 16.8116 22.1124 16.835C22.1124 16.7019 22.1739 16.5984 22.1739 16.4949C22.2354 16.4653 22.2815 16.4358 22.3276 16.4653ZM22.6352 16.7167L22.5429 17.0124C22.4353 17.0863 22.2969 17.0568 22.1739 17.0568C22.3276 17.0124 22.466 16.835 22.5429 16.7167H22.6198H22.6352ZM22.7428 17.7517L22.7121 18.077C22.6813 17.9291 22.5583 17.7813 22.4353 17.7813C22.3693 17.7294 22.3167 17.6637 22.2815 17.5891C22.2354 17.5299 22.1739 17.5891 22.097 17.5299C22.0005 17.5202 21.9033 17.5409 21.8202 17.5891V17.5151L21.974 17.3525C22.1277 17.3673 22.2969 17.3525 22.343 17.456C22.429 17.4972 22.507 17.5522 22.5737 17.6186V17.6778L22.7275 17.7517H22.7428ZM22.6044 18.4023L22.4507 18.5354C22.4045 18.491 22.4507 18.3875 22.3892 18.3136C22.3892 18.284 22.4353 18.2544 22.4045 18.2396L22.1431 18.1066C22.0464 18.038 21.9539 17.9639 21.8663 17.8848C21.7741 17.8848 21.7126 17.9144 21.6049 17.9291V17.8996C21.651 17.8109 21.651 17.7074 21.7741 17.7074C21.851 17.7074 21.9278 17.7074 21.974 17.7665C22.0662 17.7665 22.097 17.8552 22.1585 17.87C22.2302 17.9454 22.3131 18.0102 22.4045 18.0622C22.4032 18.0854 22.4081 18.1085 22.4189 18.1292C22.4297 18.15 22.446 18.1677 22.466 18.1805C22.6044 18.1805 22.5737 18.2988 22.6044 18.3875V18.4023ZM22.2969 18.698L22.22 18.905L22.0816 18.5354C21.9278 18.3875 21.7279 18.3579 21.6203 18.284C21.528 18.2544 21.528 18.3284 21.4819 18.284C21.4793 18.2542 21.4835 18.2243 21.4941 18.1962C21.5047 18.1681 21.5216 18.1426 21.5434 18.1214H21.6818L21.8048 18.1805C21.8817 18.2396 22.0201 18.2396 22.0201 18.3579C22.0201 18.3875 22.0047 18.4023 22.0662 18.491L22.2661 18.5354L22.2969 18.698ZM21.6972 18.905C21.6972 19.0529 21.4204 19.2894 21.4204 19.2894C21.4204 19.1859 21.4819 19.0677 21.4819 18.9346C21.4348 18.8938 21.3757 18.8679 21.3127 18.8607C21.2512 18.905 21.2512 18.9346 21.2205 19.0085C21.159 19.1268 21.036 19.2599 21.0052 19.3782C21.0011 19.3782 20.9972 19.3766 20.9943 19.3738C20.9914 19.3711 20.9898 19.3673 20.9898 19.3634C20.9898 19.1564 21.0052 18.8015 21.1436 18.6537C21.1809 18.6093 21.2277 18.5732 21.2807 18.5477C21.3338 18.5222 21.3919 18.5079 21.4511 18.5058L21.5742 18.5354L21.4819 18.6537C21.5742 18.698 21.7126 18.7719 21.7126 18.8902L21.6972 18.905ZM20.9437 18.7719C20.9474 18.8549 20.9261 18.937 20.8822 19.0085C20.8668 18.9198 20.8053 18.8163 20.6977 18.8163C20.6054 18.9789 20.59 19.0381 20.6669 19.2894C20.6149 19.3449 20.5523 19.3901 20.4824 19.4225C20.4454 19.3231 20.4297 19.2174 20.4362 19.112C20.4331 18.9717 20.4539 18.8319 20.4977 18.698C20.5593 18.6389 20.6054 18.5354 20.6669 18.491H20.9129C20.8053 18.491 20.8053 18.5797 20.8053 18.6389C20.8668 18.6389 20.9591 18.6684 20.9591 18.7719H20.9437ZM20.3901 19.0085C20.3747 19.0085 20.3132 18.9346 20.2363 18.9346C20.1748 19.0677 20.2363 19.1416 20.2363 19.2894C20.2382 19.3343 20.2331 19.3792 20.221 19.4225C20.1748 19.4225 20.0979 19.3338 20.0826 19.2451V18.9198L20.2671 18.698C20.3228 18.7237 20.3672 18.7674 20.3925 18.8215C20.4178 18.8757 20.4224 18.9367 20.4055 18.9937L20.3901 19.0085ZM24.8034 13.3012C24.8276 13.2381 24.836 13.1704 24.828 13.1037C24.82 13.0369 24.7958 12.9728 24.7573 12.9167C24.7265 12.828 24.6035 12.7984 24.5112 12.7097L24.3575 12.7984C24.3173 12.8206 24.2845 12.8531 24.2628 12.8923C24.241 12.9316 24.2312 12.9759 24.2344 13.0202C24.3842 13.0981 24.5071 13.2163 24.5881 13.3603H24.6496C24.7265 13.3012 24.7573 13.3603 24.8034 13.3012ZM24.096 13.4194C24.096 13.3603 24.0653 13.3603 24.0499 13.3603C23.9423 13.3603 23.9423 13.1977 23.85 13.242C23.8193 13.242 23.7731 13.1977 23.6962 13.242L23.7424 13.2568C23.85 13.2568 23.8039 13.4047 23.8961 13.4194H24.096ZM24.419 13.6708C24.419 13.6708 24.4651 13.6708 24.419 13.656L23.9576 13.5821C23.9115 13.656 23.8039 13.656 23.8039 13.7152H23.7577C23.7944 13.8853 23.8099 14.059 23.8039 14.2327C23.8528 14.2327 23.8997 14.2514 23.9344 14.2846C23.969 14.3179 23.9884 14.363 23.9884 14.4101C24.0743 14.4416 24.1567 14.4812 24.2344 14.5284C24.2806 14.5136 24.2959 14.4545 24.3267 14.3805C24.2498 14.277 24.0499 14.351 24.0499 14.1587L23.9269 14.1144C23.9293 14.0052 23.919 13.8961 23.8961 13.7891H23.9269L23.9884 13.863C24.0733 13.8776 24.1608 13.8618 24.2344 13.8187C24.2806 13.7891 24.2806 13.7004 24.3267 13.7004C24.3728 13.7004 24.4036 13.7004 24.419 13.656V13.6708ZM23.3579 13.2272C23.3272 13.1829 23.2042 13.242 23.1273 13.2716C23.0887 13.2774 23.053 13.2948 23.0253 13.3214C22.9977 13.348 22.9795 13.3823 22.9735 13.4194H23.2195C23.2578 13.3467 23.31 13.2815 23.3733 13.2272H23.3579ZM22.8966 13.0054C22.8659 12.7984 22.6352 12.7837 22.5276 12.7097H22.4353C22.3693 12.7446 22.3145 12.796 22.2765 12.8585C22.2386 12.921 22.2191 12.9922 22.22 13.0646C22.2661 13.2568 22.3892 13.1385 22.4814 13.2568C22.6107 13.1598 22.7498 13.0756 22.8966 13.0054ZM24.1576 14.8832V14.7945H23.9269L24.1576 14.8832ZM23.1888 13.7004C23.1888 13.6708 23.1426 13.6264 23.0811 13.5821H22.5737C22.5737 13.5976 22.5769 13.613 22.5831 13.6274C22.5892 13.6417 22.5983 13.6547 22.6097 13.6657C22.6211 13.6767 22.6347 13.6854 22.6496 13.6914C22.6646 13.6973 22.6806 13.7004 22.6967 13.7004C22.6967 13.7891 22.7582 13.8039 22.789 13.8335C22.8505 13.8778 22.8659 13.8778 22.9427 13.8335C23.0043 13.8778 23.0196 13.7891 23.0504 13.8335C23.0521 13.928 23.0418 14.0223 23.0196 14.1144C23.0043 14.2622 22.8659 14.2327 22.7736 14.2918C22.7736 14.351 22.6967 14.4545 22.7736 14.5284C22.8409 14.4859 22.9132 14.4512 22.9889 14.4249C22.9889 14.351 23.0504 14.2918 23.1426 14.2475C23.1273 14.0552 23.1888 13.8778 23.1888 13.7004ZM23.0196 14.7945C22.9735 14.7058 22.8659 14.7945 22.7582 14.7502C22.755 14.7735 22.7592 14.7973 22.7702 14.8184C22.7811 14.8394 22.7984 14.8569 22.8197 14.8685C22.8748 14.8192 22.9449 14.7881 23.0196 14.7797V14.7945Z" fill="#FF6600"/>
</svg>
