<svg viewBox="0 0 32 32" fill="none" xmlns="http://www.w3.org/2000/svg">
<path d="M15.3822 25.2775C20.4294 25.2775 24.5209 21.186 24.5209 16.1388C24.5209 11.0916 20.4294 7 15.3822 7C10.335 7 6.24341 11.0916 6.24341 16.1388C6.24341 21.186 10.335 25.2775 15.3822 25.2775Z" fill="#0B3D91"/>
<path d="M14.8427 8.85777C14.8993 8.85777 14.9451 8.8119 14.9451 8.75531C14.9451 8.69873 14.8993 8.65286 14.8427 8.65286C14.7861 8.65286 14.7402 8.69873 14.7402 8.75531C14.7402 8.8119 14.7861 8.85777 14.8427 8.85777Z" fill="white"/>
<path d="M15.8942 8.99443C15.9508 8.99443 15.9967 8.94856 15.9967 8.89197C15.9967 8.83539 15.9508 8.78952 15.8942 8.78952C15.8376 8.78952 15.7917 8.83539 15.7917 8.89197C15.7917 8.94856 15.8376 8.99443 15.8942 8.99443Z" fill="white"/>
<path d="M17.2741 10.8523C17.3307 10.8523 17.3765 10.8065 17.3765 10.7499C17.3765 10.6933 17.3307 10.6474 17.2741 10.6474C17.2175 10.6474 17.1716 10.6933 17.1716 10.7499C17.1716 10.8065 17.2175 10.8523 17.2741 10.8523Z" fill="white"/>
<path d="M9.70621 20.4145C9.7628 20.4145 9.80866 20.3687 9.80866 20.3121C9.80866 20.2555 9.7628 20.2096 9.70621 20.2096C9.64963 20.2096 9.60376 20.2555 9.60376 20.3121C9.60376 20.3687 9.64963 20.4145 9.70621 20.4145Z" fill="white"/>
<path d="M9.97257 21.2341C10.0292 21.2341 10.075 21.1882 10.075 21.1316C10.075 21.075 10.0292 21.0292 9.97257 21.0292C9.91599 21.0292 9.87012 21.075 9.87012 21.1316C9.87012 21.1882 9.91599 21.2341 9.97257 21.2341Z" fill="white"/>
<path d="M8.70221 20.5117C8.74459 20.5117 8.77894 20.4774 8.77894 20.435C8.77894 20.3926 8.74459 20.3583 8.70221 20.3583C8.65984 20.3583 8.62549 20.3926 8.62549 20.435C8.62549 20.4774 8.65984 20.5117 8.70221 20.5117Z" fill="white"/>
<path d="M12.8685 22.122C12.911 22.122 12.9454 22.0876 12.9454 22.0451C12.9454 22.0026 12.911 21.9681 12.8685 21.9681C12.826 21.9681 12.7915 22.0026 12.7915 22.0451C12.7915 22.0876 12.826 22.122 12.8685 22.122Z" fill="white"/>
<path d="M19.4034 20.7644C19.4458 20.7644 19.4801 20.73 19.4801 20.6876C19.4801 20.6453 19.4458 20.6109 19.4034 20.6109C19.361 20.6109 19.3267 20.6453 19.3267 20.6876C19.3267 20.73 19.361 20.7644 19.4034 20.7644Z" fill="white"/>
<path d="M21.3023 18.7019C21.3448 18.7019 21.3792 18.6675 21.3792 18.625C21.3792 18.5825 21.3448 18.548 21.3023 18.548C21.2598 18.548 21.2253 18.5825 21.2253 18.625C21.2253 18.6675 21.2598 18.7019 21.3023 18.7019Z" fill="white"/>
<path d="M11.9944 11.4258C12.0368 11.4258 12.0712 11.3914 12.0712 11.349C12.0712 11.3067 12.0368 11.2723 11.9944 11.2723C11.9521 11.2723 11.9177 11.3067 11.9177 11.349C11.9177 11.3914 11.9521 11.4258 11.9944 11.4258Z" fill="white"/>
<path d="M14.0845 9.89076C14.1269 9.89076 14.1613 9.8564 14.1613 9.81403C14.1613 9.77166 14.1269 9.7373 14.0845 9.7373C14.0422 9.7373 14.0078 9.77166 14.0078 9.81403C14.0078 9.8564 14.0422 9.89076 14.0845 9.89076Z" fill="white"/>
<path d="M13.8575 9.74058C13.8999 9.74058 13.9342 9.70623 13.9342 9.66385C13.9342 9.62148 13.8999 9.58713 13.8575 9.58713C13.8151 9.58713 13.7808 9.62148 13.7808 9.66385C13.7808 9.70623 13.8151 9.74058 13.8575 9.74058Z" fill="white"/>
<path d="M13.6527 9.59025C13.695 9.59025 13.7294 9.5559 13.7294 9.51352C13.7294 9.47115 13.695 9.4368 13.6527 9.4368C13.6103 9.4368 13.5759 9.47115 13.5759 9.51352C13.5759 9.5559 13.6103 9.59025 13.6527 9.59025Z" fill="white"/>
<path d="M12.3223 11.8222C12.3647 11.8222 12.3991 11.7878 12.3991 11.7454C12.3991 11.7031 12.3647 11.6687 12.3223 11.6687C12.28 11.6687 12.2456 11.7031 12.2456 11.7454C12.2456 11.7878 12.28 11.8222 12.3223 11.8222Z" fill="white"/>
<path d="M15.4007 7.82807C15.4431 7.82807 15.4774 7.79372 15.4774 7.75135C15.4774 7.70897 15.4431 7.67462 15.4007 7.67462C15.3583 7.67462 15.324 7.70897 15.324 7.75135C15.324 7.79372 15.3583 7.82807 15.4007 7.82807Z" fill="white"/>
<path d="M15.9063 10.0411C15.9487 10.0411 15.983 10.0067 15.983 9.96436C15.983 9.92199 15.9487 9.88763 15.9063 9.88763C15.8639 9.88763 15.8296 9.92199 15.8296 9.96436C15.8296 10.0067 15.8639 10.0411 15.9063 10.0411Z" fill="white"/>
<path d="M15.109 9.60887C15.1513 9.60887 15.1857 9.57451 15.1857 9.53214C15.1857 9.48977 15.1513 9.45541 15.109 9.45541C15.0666 9.45541 15.0322 9.48977 15.0322 9.53214C15.0322 9.57451 15.0666 9.60887 15.109 9.60887Z" fill="white"/>
<path d="M13.743 10.1965C13.7854 10.1965 13.8197 10.1621 13.8197 10.1198C13.8197 10.0774 13.7854 10.043 13.743 10.043C13.7006 10.043 13.6663 10.0774 13.6663 10.1198C13.6663 10.1621 13.7006 10.1965 13.743 10.1965Z" fill="white"/>
<path d="M19.7669 22.7914C19.8093 22.7914 19.8436 22.7571 19.8436 22.7147C19.8436 22.6723 19.8093 22.638 19.7669 22.638C19.7245 22.638 19.6902 22.6723 19.6902 22.7147C19.6902 22.7571 19.7245 22.7914 19.7669 22.7914Z" fill="white"/>
<path d="M9.57646 20.9081C9.61897 20.9081 9.65342 20.8737 9.65342 20.8312C9.65342 20.7887 9.61897 20.7542 9.57646 20.7542C9.53396 20.7542 9.49951 20.7887 9.49951 20.8312C9.49951 20.8737 9.53396 20.9081 9.57646 20.9081Z" fill="white"/>
<path d="M14.9175 21.8984C14.96 21.8984 14.9945 21.864 14.9945 21.8215C14.9945 21.779 14.96 21.7445 14.9175 21.7445C14.875 21.7445 14.8406 21.779 14.8406 21.8215C14.8406 21.864 14.875 21.8984 14.9175 21.8984Z" fill="white"/>
<path d="M11.1661 20.8466C11.2086 20.8466 11.243 20.8121 11.243 20.7696C11.243 20.7271 11.2086 20.6927 11.1661 20.6927C11.1236 20.6927 11.0891 20.7271 11.0891 20.7696C11.0891 20.8121 11.1236 20.8466 11.1661 20.8466Z" fill="white"/>
<path d="M11.8304 21.931C11.8729 21.931 11.9073 21.8966 11.9073 21.8541C11.9073 21.8116 11.8729 21.7771 11.8304 21.7771C11.7879 21.7771 11.7534 21.8116 11.7534 21.8541C11.7534 21.8966 11.7879 21.931 11.8304 21.931Z" fill="white"/>
<path d="M16.7208 21.2476C16.7631 21.2476 16.7975 21.2132 16.7975 21.1709C16.7975 21.1285 16.7631 21.0941 16.7208 21.0941C16.6784 21.0941 16.644 21.1285 16.644 21.1709C16.644 21.2132 16.6784 21.2476 16.7208 21.2476Z" fill="white"/>
<path d="M19.4168 19.7262C19.4592 19.7262 19.4935 19.6918 19.4935 19.6494C19.4935 19.6071 19.4592 19.5727 19.4168 19.5727C19.3744 19.5727 19.3401 19.6071 19.3401 19.6494C19.3401 19.6918 19.3744 19.7262 19.4168 19.7262Z" fill="white"/>
<path d="M21.461 20.6601C21.5034 20.6601 21.5377 20.6257 21.5377 20.5833C21.5377 20.541 21.5034 20.5066 21.461 20.5066C21.4186 20.5066 21.3843 20.541 21.3843 20.5833C21.3843 20.6257 21.4186 20.6601 21.461 20.6601Z" fill="white"/>
<path d="M22.1575 21.1058C22.1999 21.1058 22.2343 21.0715 22.2343 21.0291C22.2343 20.9867 22.1999 20.9524 22.1575 20.9524C22.1152 20.9524 22.0808 20.9867 22.0808 21.0291C22.0808 21.0715 22.1152 21.1058 22.1575 21.1058Z" fill="white"/>
<path d="M22.272 19.8902C22.3144 19.8902 22.3488 19.8558 22.3488 19.8135C22.3488 19.7711 22.3144 19.7367 22.272 19.7367C22.2297 19.7367 22.1953 19.7711 22.1953 19.8135C22.1953 19.8558 22.2297 19.8902 22.272 19.8902Z" fill="white"/>
<path d="M12.1087 18.169C12.1511 18.169 12.1854 18.1347 12.1854 18.0923C12.1854 18.0499 12.1511 18.0156 12.1087 18.0156C12.0663 18.0156 12.032 18.0499 12.032 18.0923C12.032 18.1347 12.0663 18.169 12.1087 18.169Z" fill="white"/>
<path d="M12.1379 19.9567C12.1944 19.9567 12.2403 19.9108 12.2403 19.8543C12.2403 19.7977 12.1944 19.7518 12.1379 19.7518C12.0813 19.7518 12.0354 19.7977 12.0354 19.8543C12.0354 19.9108 12.0813 19.9567 12.1379 19.9567Z" fill="white"/>
<path d="M12.7526 21.2545C12.8092 21.2545 12.8551 21.2087 12.8551 21.1521C12.8551 21.0955 12.8092 21.0496 12.7526 21.0496C12.696 21.0496 12.6501 21.0955 12.6501 21.1521C12.6501 21.2087 12.696 21.2545 12.7526 21.2545Z" fill="white"/>
<path d="M20.1154 19.9023C20.172 19.9023 20.2178 19.8564 20.2178 19.7998C20.2178 19.7433 20.172 19.6974 20.1154 19.6974C20.0588 19.6974 20.0129 19.7433 20.0129 19.7998C20.0129 19.8564 20.0588 19.9023 20.1154 19.9023Z" fill="white"/>
<path d="M22.7655 19.752C22.8221 19.752 22.868 19.7061 22.868 19.6495C22.868 19.5929 22.8221 19.5471 22.7655 19.5471C22.709 19.5471 22.6631 19.5929 22.6631 19.6495C22.6631 19.7061 22.709 19.752 22.7655 19.752Z" fill="white"/>
<path d="M21.4543 19.1918C21.5108 19.1918 21.5567 19.146 21.5567 19.0894C21.5567 19.0328 21.5108 18.9869 21.4543 18.9869C21.3977 18.9869 21.3518 19.0328 21.3518 19.0894C21.3518 19.146 21.3977 19.1918 21.4543 19.1918Z" fill="white"/>
<path d="M20.1154 19.2465C20.172 19.2465 20.2178 19.2006 20.2178 19.144C20.2178 19.0875 20.172 19.0416 20.1154 19.0416C20.0588 19.0416 20.0129 19.0875 20.0129 19.144C20.0129 19.2006 20.0588 19.2465 20.1154 19.2465Z" fill="white"/>
<path d="M17.354 8.69114L17.6087 8.66678L17.3544 8.65243C17.3465 8.60326 17.3071 8.56478 17.2575 8.55841L17.2331 8.30478L17.2185 8.56045C17.1725 8.5707 17.1372 8.60918 17.1315 8.65699L16.8711 8.68067L17.1334 8.69478C17.1429 8.73872 17.1784 8.7731 17.2231 8.7813L17.2468 9.04266L17.2606 8.78175C17.3078 8.77378 17.3451 8.73758 17.354 8.69114Z" fill="white"/>
<path d="M13.0542 11.5274L13.3089 11.5031L13.0546 11.4887C13.0469 11.4395 13.0073 11.4011 12.9576 11.3947L12.9333 11.1411L12.9189 11.3967C12.8727 11.407 12.8374 11.4455 12.8317 11.4933L12.5713 11.5169L12.8336 11.5311C12.8431 11.575 12.8786 11.6094 12.9233 11.6176L12.9469 11.8789L12.9611 11.618C13.0082 11.6103 13.0455 11.5739 13.0542 11.5274Z" fill="white"/>
<path d="M22.5789 19.0265L22.8336 19.0022L22.5793 18.9878C22.5716 18.9386 22.532 18.9002 22.4823 18.8938L22.458 18.6402L22.4436 18.8958C22.3976 18.9061 22.3623 18.9446 22.3566 18.9924L22.0962 19.0161L22.3585 19.0302C22.368 19.0741 22.4035 19.1085 22.4482 19.1167L22.4718 19.378L22.486 19.1171C22.5326 19.1094 22.57 19.0732 22.5789 19.0265Z" fill="white"/>
<path d="M12.1936 22.9476L12.4484 22.9232L12.194 22.9089C12.1861 22.8597 12.1467 22.8212 12.0971 22.8149L12.0727 22.5615L12.0583 22.8169C12.0121 22.8272 11.9768 22.8656 11.9712 22.9134L11.7107 22.9371L11.973 22.9512C11.9825 22.9952 12.0181 23.0298 12.0627 23.0378L12.0864 23.2991L12.1005 23.0382C12.1474 23.0305 12.1849 22.994 12.1936 22.9476Z" fill="white"/>
<path d="M21.7695 21.035L22.0243 21.0107L21.77 20.9963C21.7622 20.9472 21.7226 20.9087 21.673 20.9023L21.6486 20.6487L21.6343 20.9041C21.5883 20.9144 21.553 20.9529 21.5473 21.0007L21.2869 21.0243L21.5491 21.0385C21.5587 21.0824 21.5942 21.1168 21.6388 21.125L21.6625 21.3863L21.6766 21.1254C21.7233 21.1179 21.7609 21.0815 21.7695 21.035Z" fill="white"/>
<path d="M17.5493 13.9498C16.4867 14.3628 15.4504 14.7314 14.5759 15.005C12.7989 15.5615 7.93697 17.0677 5 18.9665L5.24589 19.0622C7.03539 18.0513 8.19857 17.7337 9.31666 17.3819C10.5324 16.9994 14.4627 16.0796 16.2424 15.5788C16.8437 15.4096 17.5479 15.1881 18.2938 14.9185C18.1203 14.6765 17.9372 14.4338 17.7446 14.1916C17.6802 14.1098 17.6149 14.0292 17.5493 13.9498ZM18.8475 15.739C18.5902 15.9128 18.3746 16.0514 18.2237 16.1388C17.3494 16.6443 13.0871 19.5539 12.1175 20.2233C11.1478 20.8926 8.45652 23.4335 7.66422 24.1711L7.6369 24.4714C10.1914 22.1765 10.9928 21.6105 12.0082 20.838C13.265 19.8818 15.8647 18.1128 16.7483 17.5459C17.593 17.004 18.3548 16.5056 19.0385 16.0496C19.0273 16.0309 19.0162 16.0123 19.005 15.9934C18.9536 15.9089 18.901 15.8242 18.8475 15.739ZM22.8406 11.5216C21.5962 12.2511 19.6348 13.1315 17.7319 13.8785C17.7774 13.9343 17.8227 13.9905 17.8678 14.0472C18.0804 14.315 18.281 14.5845 18.4698 14.8543C19.9656 14.3033 21.6069 13.5639 22.9091 12.6689C22.2887 13.2567 20.2376 14.7897 18.987 15.6441C19.0515 15.7491 19.1139 15.854 19.1742 15.9585C21.0689 14.6906 22.3438 13.7574 23.0867 13.1333C24.1113 12.2727 26.4472 10.3466 27.3351 7.76483C25.7776 9.74581 23.9362 10.8794 22.8406 11.5216Z" fill="#FC3D21"/>
<path d="M14.2061 18.4015C14.0046 18.1479 13.726 17.8082 13.5167 17.5448C13.2369 17.1926 12.9781 16.8367 12.7408 16.4813C12.6634 16.5007 12.5863 16.52 12.5091 16.5394C12.7955 16.9863 13.1135 17.4325 13.4601 17.8688C13.7132 18.1875 13.9434 18.4441 14.0613 18.6037C14.0852 18.636 14.1326 18.7075 14.1966 18.8027C14.2703 18.7526 14.3448 18.702 14.4199 18.651C14.3473 18.572 14.2756 18.4889 14.2061 18.4015ZM15.6769 19.7366C15.5114 19.5799 15.11 19.3183 14.6922 18.9258C14.6 18.9891 14.5069 19.0533 14.4135 19.118C14.6833 19.4982 15.0508 19.9652 15.3386 20.1013C15.7721 20.3067 15.8889 19.9374 15.6769 19.7366ZM17.8678 14.0471C15.4791 11.0404 12.561 9.38865 11.3029 10.3884C10.3257 11.1647 10.7269 13.4337 12.0738 15.8172C12.1434 15.7933 12.2124 15.7698 12.2807 15.7466C10.9213 13.4244 10.5493 11.2663 11.4709 10.5338C12.6291 9.61359 15.4256 11.2717 17.7451 14.1912C18.2252 14.7954 18.6473 15.4019 19.0048 15.9932C20.3736 18.2585 20.7936 20.3071 19.8479 21.1434C19.5585 21.3993 18.6742 21.4997 17.5158 20.9783C17.4996 20.9986 17.5256 21.0534 17.5459 21.0669C18.5458 21.4689 19.5036 21.6222 19.9872 21.2381C21.1492 20.3146 20.2565 17.0537 17.8678 14.0471Z" fill="white"/>
<path d="M7.62305 14.4039H9.153L10.4371 16.5828C10.4371 16.5828 10.4371 15.005 10.4371 14.882C10.4371 14.6908 10.1946 14.4415 10.1092 14.4039C10.2117 14.4039 11.1064 14.4039 11.1679 14.4039C11.103 14.421 10.8947 14.6737 10.8947 14.882C10.8947 14.9845 10.8947 17.2726 10.8947 17.3819C10.8947 17.5356 11.1167 17.7473 11.2225 17.8293H9.74723L8.44267 15.6402C8.44267 15.6402 8.44267 17.2726 8.44267 17.3614C8.44267 17.5321 8.61001 17.6961 8.78417 17.8361H7.6572C7.81771 17.7678 7.97139 17.5526 7.98505 17.3819C7.99871 17.2111 7.98505 15.0084 7.98505 14.9128C7.98505 14.7045 7.78356 14.5337 7.62305 14.4039Z" fill="white"/>
<path d="M21.6179 17.8293H23.6533C23.5406 17.8019 23.4143 17.6687 23.346 17.4912C23.2777 17.3136 22.1985 14.4039 22.1985 14.4039H21.4246C21.2052 14.5619 20.97 14.7286 20.7189 14.9041C20.7182 14.9105 20.7175 14.9169 20.7164 14.923C20.6827 15.1279 20.0771 17.3213 20.0402 17.4297C19.9889 17.58 19.726 17.7473 19.6201 17.8361H20.7164C20.6071 17.7131 20.5183 17.5936 20.5388 17.457C20.5593 17.3204 20.6207 17.0472 20.6207 17.0472H21.7545C21.8058 17.1838 21.844 17.3065 21.8638 17.4229C21.8877 17.5629 21.7443 17.72 21.6179 17.8293ZM20.7232 16.6101L21.1057 15.3602L21.6111 16.6101H20.7232ZM20.5508 14.5287C20.6071 14.4873 20.6635 14.4456 20.7198 14.4039H20.4227C20.4523 14.4313 20.5012 14.4743 20.5508 14.5287Z" fill="white"/>
<path d="M12.7663 17.457C12.7868 17.3204 12.8483 17.0472 12.8483 17.0472H13.9821C14.0333 17.1838 14.0716 17.3065 14.0914 17.4229C14.1153 17.5629 13.9718 17.72 13.8455 17.8293H15.6375C15.6748 17.8042 15.7119 17.7792 15.749 17.7544C15.6796 17.6929 15.6156 17.6007 15.5735 17.4912C15.5052 17.3136 14.426 14.4039 14.426 14.4039H12.6502C12.7356 14.4825 12.9815 14.6942 12.9439 14.923C12.9104 15.1279 12.3046 17.3213 12.2677 17.4297C12.2165 17.58 11.9535 17.7473 11.8477 17.8361H12.9439C12.8346 17.7131 12.7458 17.5936 12.7663 17.457ZM13.3332 15.3602L13.8386 16.6101H12.9507L13.3332 15.3602Z" fill="white"/>
<path d="M18.9563 16.1041C18.6221 16.3268 18.2694 16.5592 17.8978 16.8019C18.0645 16.8828 18.1972 16.9843 18.21 17.1154C18.2337 17.3618 17.7387 17.4809 17.2913 17.4296C17.2019 17.4194 17.114 17.3959 17.0302 17.3645C16.9373 17.4244 16.8435 17.4847 16.7483 17.5457C16.6516 17.6079 16.5341 17.6844 16.4 17.7727V18.1263C16.4888 17.9521 16.683 17.7962 16.8337 17.7882C16.8986 17.7848 17.124 17.9931 18.0529 17.9419C18.5037 17.9171 19.3745 17.4365 19.3609 16.8832C19.3527 16.5563 19.1819 16.3013 18.9563 16.1041ZM16.3998 16.9584V17.3185C16.482 17.2637 16.563 17.2097 16.6425 17.1571C16.5175 17.0701 16.4289 16.9889 16.3998 16.9584ZM18.6387 15.878C18.5522 15.8268 18.4645 15.782 18.3805 15.7424C17.9434 15.5375 17.4858 15.4999 17.3901 15.2233C17.3227 15.0282 17.5131 14.8476 17.9775 14.8544C18.442 14.8613 18.8723 15.1379 18.9884 15.2369V14.3558C18.9542 14.39 18.8044 14.5619 18.6674 14.5334C18.4044 14.4788 17.957 14.4075 17.4448 14.4105C16.8574 14.4139 16.352 14.8679 16.3349 15.4418C16.311 16.2444 16.953 16.4629 17.315 16.5893C17.3523 16.6023 17.3949 16.6162 17.4411 16.631C17.7883 16.4051 18.0629 16.2312 18.2236 16.1385C18.3316 16.0764 18.4729 15.9871 18.6387 15.878Z" fill="white"/>
</svg>
