<svg viewBox="0 0 32 32" fill="none" xmlns="http://www.w3.org/2000/svg">
<path d="M31.5865 17.7308V17.6422H31.6423C31.6719 17.6422 31.7145 17.6455 31.7145 17.6816C31.7145 17.7177 31.6915 17.7308 31.6554 17.7308H31.5865ZM31.5865 17.7932H31.6259L31.7145 17.9475H31.8097L31.7112 17.7866C31.7605 17.7899 31.7999 17.7538 31.8032 17.7046V17.6914C31.8032 17.6061 31.7441 17.5798 31.6456 17.5798H31.5044V17.9475H31.5865V17.7932ZM32.0002 17.7636C32.0002 17.547 31.8327 17.4222 31.6456 17.4222C31.4585 17.4222 31.291 17.547 31.291 17.7636C31.291 17.9803 31.4585 18.1051 31.6456 18.1051C31.8327 18.1051 32.0002 17.9803 32.0002 17.7636ZM31.8951 17.7636C31.9017 17.9015 31.7933 18.0197 31.6554 18.0263H31.6456C31.5011 18.0329 31.3797 17.918 31.3731 17.7735C31.3665 17.629 31.4814 17.5076 31.6259 17.501C31.7703 17.4944 31.8918 17.6093 31.8984 17.7538C31.8951 17.7571 31.8951 17.7604 31.8951 17.7636Z" fill="black"/>
<path d="M18.9827 14.1163V17.9903H20.076V14.1163H18.9827ZM10.3811 14.1097V17.987H11.4842V14.9764L12.3444 14.9797C12.6267 14.9797 12.8237 15.0487 12.9583 15.1931C13.1323 15.377 13.2012 15.6757 13.2012 16.2174V17.987H14.2715V15.8464C14.2715 14.3165 13.2965 14.1097 12.3444 14.1097H10.3811ZM20.7457 14.1163V17.9903H22.5186C23.4641 17.9903 23.7727 17.8327 24.1043 17.4814C24.3407 17.2352 24.4917 16.6902 24.4917 16.096C24.4917 15.551 24.3636 15.0651 24.1371 14.763C23.7366 14.2213 23.1522 14.1163 22.2789 14.1163H20.7457ZM21.8291 14.9567H22.2986C22.9815 14.9567 23.4214 15.2621 23.4214 16.0566C23.4214 16.8511 22.9815 17.1597 22.2986 17.1597H21.8291V14.9567ZM17.4068 14.1163L16.4942 17.1859L15.6209 14.1163H14.439L15.6865 17.9903H17.2624L18.5231 14.1163H17.4068ZM25.0038 17.9903H26.0971V14.1163H25.0038V17.9903ZM28.0702 14.1163L26.5436 17.987H27.6204L27.8634 17.3008H29.6691L29.8989 17.9837H31.0709L29.5312 14.1163H28.0702ZM28.7793 14.8221L29.4425 16.6344H28.0965L28.7793 14.8221Z" fill="black"/>
<path d="M3.32574 14.7597V14.2279C3.37827 14.2246 3.43079 14.2213 3.48332 14.2213C4.941 14.1753 5.89637 15.4754 5.89637 15.4754C5.89637 15.4754 4.86549 16.9068 3.7591 16.9068C3.61136 16.9068 3.46691 16.8839 3.32902 16.8379V15.2226C3.89699 15.2916 4.0119 15.5411 4.35005 16.1091L5.10844 15.4721C5.10844 15.4721 4.5536 14.7466 3.62121 14.7466C3.52272 14.7433 3.42423 14.7499 3.32574 14.7597ZM3.32574 13V13.7945L3.48332 13.7847C5.50897 13.7157 6.83204 15.4459 6.83204 15.4459C6.83204 15.4459 5.31527 17.291 3.73612 17.291C3.59823 17.291 3.46362 17.2778 3.32902 17.2548V17.7473C3.44064 17.7604 3.55555 17.7703 3.66717 17.7703C5.13798 17.7703 6.20169 17.0185 7.23257 16.132C7.40329 16.2699 8.10258 16.6015 8.24704 16.746C7.26869 17.5667 4.98696 18.2266 3.69344 18.2266C3.56868 18.2266 3.45049 18.2201 3.3323 18.2069V18.8997H8.92006V13H3.32574V13ZM3.32574 16.8379V17.2581C1.96655 17.0152 1.589 15.6002 1.589 15.6002C1.589 15.6002 2.24233 14.8779 3.32574 14.7597V15.2193H3.32245C2.75448 15.1504 2.30799 15.6823 2.30799 15.6823C2.30799 15.6823 2.56078 16.5785 3.32574 16.8379ZM0.91269 15.5411C0.91269 15.5411 1.71704 14.3526 3.32902 14.2279V13.7945C1.54304 13.939 0 15.4492 0 15.4492C0 15.4492 0.873293 17.9771 3.32574 18.2069V17.7473C1.52662 17.5241 0.91269 15.5411 0.91269 15.5411Z" fill="#76B900"/>
</svg>
