<svg viewBox="0 0 32 32" fill="none" xmlns="http://www.w3.org/2000/svg">
<path d="M3.45141 14.1247C3.20882 14.0365 2.97726 13.9703 2.75672 13.9152C2.53618 13.8711 2.32667 13.849 2.13921 13.849C1.89662 13.849 1.72019 13.8931 1.58787 13.9703C1.45555 14.0475 1.38939 14.1468 1.38939 14.2681C1.38939 14.3563 1.42247 14.4335 1.49966 14.4996C1.57684 14.5658 1.69814 14.6209 1.85252 14.6871L2.75672 15.1171C3.10958 15.2825 3.37422 15.47 3.57271 15.6905C3.76017 15.9111 3.84838 16.1757 3.84838 16.4845C3.83735 16.9586 3.6499 17.3446 3.26396 17.6202C2.88904 17.8959 2.37078 18.0282 1.73122 18.0393C1.48863 18.0393 1.23501 18.0282 0.948311 17.9951C0.683666 17.9731 0.407994 17.918 0.110269 17.8518V16.8594C0.396968 16.9586 0.661613 17.0248 0.926258 17.0689C1.17988 17.113 1.41144 17.135 1.62095 17.135C1.8856 17.135 2.08408 17.0909 2.2164 17.0027C2.35975 16.9255 2.42591 16.8153 2.42591 16.6719C2.42591 16.5947 2.40386 16.5286 2.34872 16.4734C2.29359 16.4073 2.20538 16.3521 2.09511 16.297L1.09166 15.878C0.716747 15.7126 0.441075 15.5141 0.264645 15.2715C0.088215 15.0399 0 14.7753 0 14.4555C0.0110269 14.0144 0.198484 13.6506 0.551344 13.3969C0.915231 13.1323 1.41144 13.011 2.02895 13C2.24948 13 2.49207 13.022 2.73467 13.0551C2.98828 13.0882 3.21985 13.1323 3.44039 13.1764C3.45141 13.1764 3.45141 14.1247 3.45141 14.1247ZM5.95451 17.9621H4.48794V13.0882H5.95451V17.9621ZM10.674 13.9924H8.4907V15.073H10.3763V15.889H8.4907V17.0248H10.7181V17.9731H7.09028V13.0882H10.674V13.9924ZM17.5217 17.9621H16.1544V14.7422L14.7319 17.9951H13.8939L12.5265 14.7422V17.951H11.5341V13.0882H13.3205L14.5445 16.0654L15.8236 13.0882H17.5217V17.9621ZM22.2412 13.9924H20.0689V15.073H21.9545V15.889H20.0689V17.0248H22.2853V17.9731H18.6575V13.0882H22.2412V13.9924ZM27.3908 17.9621H25.836L24.0937 14.8415V17.9621H23.1013V13.0882H24.7002L26.3983 16.1537V13.0882H27.3908V17.9621ZM31.603 14.1247C31.3604 14.0365 31.1289 13.9703 30.9083 13.9152C30.6878 13.8711 30.4783 13.849 30.2908 13.849C30.0482 13.849 29.8608 13.8931 29.7285 13.9703C29.5961 14.0475 29.53 14.1468 29.53 14.2681C29.53 14.3563 29.5631 14.4335 29.6292 14.4996C29.6954 14.5658 29.8167 14.6209 30.0041 14.6871L30.9083 15.1171C31.2612 15.2825 31.5258 15.47 31.7243 15.7016C31.9118 15.9221 32 16.1978 32 16.5286C31.989 16.9807 31.8015 17.3556 31.4156 17.6202C31.0407 17.8959 30.5114 18.0282 29.8718 18.0393C29.6402 18.0393 29.3866 18.0282 29.0999 17.9951C28.8353 17.9731 28.5596 17.918 28.2619 17.8518V16.8594C28.5486 16.9586 28.8132 17.0248 29.0779 17.0689C29.3315 17.113 29.5631 17.135 29.7726 17.135C30.0372 17.135 30.2247 17.0909 30.368 17.0138C30.5003 16.9366 30.5665 16.8373 30.5665 16.716C30.5665 16.6278 30.5445 16.5396 30.4893 16.4734C30.4342 16.4073 30.346 16.3411 30.2357 16.297L29.2433 15.878C28.8684 15.7126 28.6037 15.5251 28.4163 15.2936C28.2509 15.073 28.1626 14.7974 28.1626 14.4555C28.1737 14.0144 28.3501 13.6506 28.703 13.3969C29.0668 13.1323 29.5631 13.011 30.1806 13C30.3901 13 30.6216 13.022 30.8642 13.0551C31.1068 13.0882 31.3494 13.1323 31.603 13.1764V14.1247Z" fill="#444444"/>
</svg>
