<svg viewBox="0 0 32 32" fill="none" xmlns="http://www.w3.org/2000/svg">
<path d="M20.9171 17.9547H20.9076C20.6408 18.2977 20.3644 18.4883 19.9261 18.4883C19.3829 18.4883 18.9922 18.1834 18.9922 17.6212C18.9922 16.6206 20.1071 16.5443 20.8504 16.5443H21.1268C21.1458 16.4586 21.1458 16.3728 21.1458 16.287C21.1458 15.9821 20.8123 15.8963 20.536 15.8963C20.1929 15.8963 19.8498 15.9821 19.5354 16.1346L19.6497 15.5056C19.9833 15.3913 20.3263 15.3246 20.6789 15.3246C21.2888 15.3246 21.8606 15.5437 21.8606 16.2584C21.8606 16.6682 21.5556 17.8594 21.4889 18.4312H20.8218L20.9171 17.9547ZM20.1453 17.9166C20.7361 17.9166 20.9171 17.5068 21.041 17.0208H20.7647C20.3835 17.0208 19.745 17.0875 19.745 17.6021C19.745 17.8022 19.9451 17.9166 20.1453 17.9166Z" fill="black"/>
<path d="M2.83965 15.3817H3.6306L2.9826 18.4121H2.19165L2.83965 15.3817ZM3.12554 14.0762H3.91648L3.75448 14.829H2.96354L3.12554 14.0762Z" fill="black"/>
<path d="M6.01299 16.0774C5.86052 15.9726 5.65087 15.9249 5.43169 15.9249C4.80275 15.9249 4.45016 16.5157 4.45016 17.0875C4.45016 17.4782 4.58357 17.8784 5.11722 17.8784C5.30781 17.8784 5.55557 17.8213 5.75569 17.726L5.66993 18.3549C5.43169 18.4693 5.16487 18.4979 4.90757 18.4979C4.12616 18.4979 3.62109 17.9737 3.62109 17.1923C3.62109 16.1346 4.32627 15.3246 5.41263 15.3246C5.70805 15.3246 5.99393 15.3817 6.20358 15.4389L6.01299 16.0774Z" fill="black"/>
<path d="M6.88018 14H7.67112L7.147 16.4872H7.15653L8.26195 15.3818H9.2816L7.83312 16.7635L8.73842 18.4217H7.85218L7.07077 16.8112H7.06124L6.71817 18.4217H5.94629L6.88018 14Z" fill="black"/>
<path d="M12.131 15.3819H12.7027L12.8361 14.7529L13.6843 14.4766L13.4937 15.3819H14.1989L14.075 15.9632H13.3698L13.0839 17.2878C13.0648 17.3545 13.0458 17.4688 13.0458 17.5832C13.0458 17.7642 13.1697 17.8786 13.3507 17.8786C13.4937 17.8786 13.6366 17.85 13.7319 17.8119L13.5985 18.4218C13.4651 18.4503 13.3126 18.4885 13.1697 18.4885C12.636 18.4885 12.2548 18.2788 12.2548 17.6975C12.2548 17.4593 12.3025 17.2306 12.3597 16.9923L12.5788 15.9632H12.0071L12.131 15.3819Z" fill="black"/>
<path d="M11.8641 16.4682C11.8641 15.6963 11.3685 15.3151 10.6252 15.3151C9.62463 15.3151 8.90039 16.2204 8.90039 17.1638C8.90039 18.0691 9.49122 18.4884 10.3584 18.4884C10.6824 18.4884 11.0159 18.4122 11.3209 18.3169L11.4257 17.6879C11.1303 17.8213 10.8158 17.9071 10.4918 17.9071C9.98675 17.9071 9.69134 17.726 9.65322 17.2496C9.65322 17.221 9.65322 17.1924 9.65322 17.1638C9.65322 17.1543 9.65322 17.1543 9.65322 17.1447V17.1352C9.65322 16.9256 9.70086 16.7255 9.7771 16.5349C9.92957 16.1442 10.1392 15.8773 10.6062 15.8773C10.9397 15.8773 11.1112 16.0584 11.1112 16.3824C11.1112 16.4491 11.1017 16.5158 11.0922 16.592H10.0153C9.94863 16.8303 9.92957 16.9923 9.92957 17.1352H11.7878C11.8355 16.916 11.8641 16.6969 11.8641 16.4682Z" fill="black"/>
<path d="M14.542 15.7153C14.561 15.601 14.5896 15.4771 14.6087 15.3818H15.3424L15.2757 15.7916H15.2853C15.4949 15.4771 15.8475 15.3151 16.2192 15.3151C16.5813 15.3151 16.9529 15.5247 16.991 15.8964H17.0006C17.2007 15.5057 17.639 15.3151 18.0679 15.3151C18.5253 15.3151 18.9065 15.6867 18.9065 16.1442C18.9065 16.411 18.8398 16.7255 18.773 16.9732L18.4586 18.4217H17.6676L17.9821 16.9446C18.0202 16.7636 18.0869 16.4777 18.0869 16.2966C18.0869 16.0775 17.9154 15.9345 17.7153 15.9345C17.1626 15.9345 17.0292 16.573 16.9339 16.9827L16.6194 18.4217H15.8284L16.1429 16.9446C16.181 16.7636 16.2477 16.4777 16.2477 16.2966C16.2477 16.0775 16.0762 15.9345 15.8761 15.9345C15.3424 15.9345 15.19 16.573 15.0947 16.9827L14.7802 18.4217H13.9893L14.542 15.7153Z" fill="black"/>
<path d="M24.2143 16.0011C24.1286 15.9535 23.9094 15.8868 23.6902 15.8868C23.452 15.8868 23.1566 15.9535 23.1566 16.1917C23.1566 16.5729 24.1858 16.7159 24.1858 17.4592C24.1858 18.2501 23.4996 18.4883 22.823 18.4883C22.5086 18.4883 22.1846 18.4407 21.8987 18.3073L22.0702 17.6783C22.2894 17.8022 22.5181 17.9166 22.823 17.9166C23.0899 17.9166 23.3662 17.8308 23.3662 17.583C23.3662 17.097 22.337 17.0494 22.337 16.287C22.337 15.5723 23.0232 15.3246 23.6521 15.3246C23.938 15.3246 24.2334 15.3817 24.3954 15.4198L24.2143 16.0011Z" fill="black"/>
<path d="M24.7191 15.3819H25.2909L25.4243 14.7529L26.2724 14.4766L26.0818 15.3819H26.787L26.6631 15.9632H25.9579L25.672 17.2878C25.653 17.3545 25.6339 17.4688 25.6339 17.5832C25.6339 17.7642 25.7578 17.8786 25.9389 17.8786C26.0818 17.8786 26.2248 17.85 26.32 17.8119L26.1866 18.4218C26.0532 18.4503 25.9008 18.4885 25.7578 18.4885C25.2242 18.4885 24.843 18.2788 24.843 17.6975C24.843 17.4593 24.8906 17.2306 24.9383 16.9923L25.167 15.9632H24.5952L24.7191 15.3819Z" fill="black"/>
<path d="M30.0747 15.7916C30.0937 15.6582 30.1223 15.5247 30.1414 15.3818H30.8942L30.7894 15.9536H30.7989C30.9419 15.62 31.3326 15.3151 31.6947 15.3151C31.7995 15.3151 31.9043 15.3246 31.9996 15.3437L31.8376 16.1156C31.7519 16.087 31.6375 16.0679 31.5327 16.0679C30.9705 16.0679 30.7036 16.573 30.5988 17.059L30.3129 18.4217H29.522L30.0747 15.7916Z" fill="black"/>
<path d="M29.5315 16.4682C29.5315 15.6963 29.036 15.3151 28.2927 15.3151C27.3016 15.3151 26.5679 16.2204 26.5679 17.1638C26.5679 18.0691 27.1587 18.4884 28.0259 18.4884C28.3499 18.4884 28.6834 18.4122 28.9884 18.3169L29.0932 17.6879C28.7978 17.8213 28.4833 17.9071 28.1593 17.9071C27.6542 17.9071 27.3588 17.726 27.3207 17.2496C27.3207 17.221 27.3207 17.1924 27.3207 17.1638C27.3207 17.1543 27.3207 17.1543 27.3207 17.1447V17.1352C27.3207 16.9256 27.3683 16.7255 27.4446 16.5349C27.5971 16.1442 27.8067 15.8773 28.2736 15.8773C28.6072 15.8773 28.7787 16.0584 28.7787 16.3824C28.7787 16.4491 28.7692 16.5158 28.7596 16.592H27.6828C27.6161 16.8303 27.5971 16.9923 27.5971 17.1352H29.4553C29.5029 16.916 29.5315 16.6969 29.5315 16.4682Z" fill="black"/>
<path d="M0.123883 15.3819H0.69565L0.829063 14.7529L1.67718 14.4766L1.4866 15.3819H2.19178L2.06789 15.9632H1.36271L1.07683 17.2878C1.05777 17.3545 1.03871 17.4688 1.03871 17.5832C1.03871 17.7642 1.16259 17.8786 1.34365 17.8786C1.4866 17.8786 1.62954 17.85 1.72483 17.8119L1.59142 18.4218C1.45801 18.4503 1.30554 18.4885 1.16259 18.4885C0.628944 18.4885 0.247766 18.2788 0.247766 17.6975C0.247766 17.4593 0.295413 17.2306 0.35259 16.9923L0.571767 15.9632H0L0.123883 15.3819Z" fill="black"/>
</svg>
