<svg viewBox="0 0 32 32" fill="none" xmlns="http://www.w3.org/2000/svg">
<path fill-rule="evenodd" clip-rule="evenodd" d="M16.0578 13.3471C15.8563 13.1236 15.7891 12.833 15.8339 12.4977C15.8787 12.1847 16.0354 11.8941 16.304 11.6706C16.5727 11.4471 16.8638 11.3353 17.1996 11.3353C17.5354 11.3353 17.7817 11.4471 17.9832 11.6706C18.1847 11.8941 18.2519 12.1847 18.2071 12.52C18.1623 12.8553 18.0056 13.1236 17.7369 13.3694C17.4683 13.593 17.1772 13.7047 16.8414 13.7047C16.5055 13.6824 16.2369 13.5706 16.0578 13.3471ZM13.2815 14.3753C12.9009 14.3753 12.5427 14.6883 12.4755 15.0683L12.0949 17.9518C12.0501 18.2648 11.8934 18.533 11.6471 18.7566C11.4008 18.9801 11.1098 19.0919 10.7739 19.0919C10.4605 19.0919 10.2142 18.9801 10.0127 18.7566C9.8112 18.533 9.74404 18.2648 9.78881 17.9295L10.0351 16.1859C10.0351 15.8283 9.78881 15.5601 9.43059 15.5601H8.49025C8.13202 15.5601 7.79618 15.8283 7.70663 16.1859L7.46035 17.9295C7.41557 18.2424 7.25884 18.533 7.01256 18.7566C6.76628 18.9801 6.47523 19.0919 6.16178 19.0919C5.84833 19.0919 5.60205 18.9801 5.40055 18.7566C5.19905 18.533 5.13188 18.2648 5.17666 17.9518L5.714 14.1518C5.75877 13.7718 5.55727 13.3918 5.22144 13.2353C5.22144 13.2353 1.23617 11.5812 0.989893 11.4694C0.676445 11.3577 0.385387 11.6035 0.273441 12.0059L0.0271608 12.9671C-0.0847848 13.3694 0.161495 13.8165 0.54211 13.973L3.20642 15.0683L2.80341 17.9518C2.66908 18.913 2.89297 19.7401 3.47508 20.4331C4.0572 21.126 4.84082 21.4613 5.80355 21.4613C6.69912 21.4613 7.50512 21.1707 8.24397 20.5672C8.82608 21.1707 9.56492 21.4613 10.4381 21.4613C11.4008 21.4613 12.274 21.126 13.0576 20.4331C13.8412 19.7401 14.289 18.913 14.4234 17.9518C14.4234 17.9518 14.8488 14.9118 14.8488 14.8671C14.8935 14.5989 14.6025 14.3977 14.1995 14.3977L13.2815 14.3753ZM17.1548 14.3753H16.3264C15.9682 14.3753 15.6548 14.6659 15.61 15.0012L14.7592 21.0142C14.7368 21.2601 14.9831 21.4389 15.3413 21.4389H16.1697C16.5279 21.4389 16.8414 21.1484 16.8862 20.8131L17.7369 14.8C17.7593 14.5765 17.5131 14.3753 17.1548 14.3753ZM31.4391 15.1353C30.9689 14.5765 30.3196 14.2859 29.4912 14.2859C28.6852 14.2859 27.924 14.4647 27.1628 15.113L27.7225 11.4471C27.7449 11.2012 27.4986 11 27.1404 11H26.2896C25.9314 11 25.5955 11.2906 25.5507 11.6482L24.185 21.0142C24.1402 21.2601 24.4089 21.4613 24.7671 21.4613H25.6179C25.9761 21.4613 26.2896 21.1931 26.3568 20.8354L26.7822 17.9071C26.8717 17.326 27.0956 16.8789 27.4538 16.5659C27.812 16.253 28.2151 16.1189 28.6628 16.1189C29.536 16.1189 29.8942 16.7001 29.7151 17.8624L29.2673 21.0142C29.245 21.2601 29.4912 21.4613 29.8495 21.4613H30.7002C31.0585 21.4613 31.3943 21.1707 31.4391 20.8131L31.954 17.393C32.0884 16.4542 31.9316 15.7165 31.4391 15.1353ZM23.2447 16.4095C23.3566 16.4095 23.4686 16.3424 23.5805 16.1859L23.9835 15.6718C24.1626 15.4483 24.1626 15.1353 23.9835 14.9118C23.9163 14.8 23.7148 14.6659 23.5133 14.5765L23.491 14.5542C22.8864 14.2412 22.3043 14.1071 21.5207 14.1518C20.6699 14.1965 19.9535 14.4424 19.3714 14.8895C18.7892 15.3365 18.4534 15.9177 18.3862 16.5883C18.3191 17.2812 18.543 17.7954 19.0803 18.1083C19.3266 18.2648 19.5505 18.3766 19.752 18.466C19.9535 18.5554 20.2445 18.6448 20.6251 18.7342C20.9834 18.846 21.2744 18.9577 21.4535 19.0695C21.6327 19.1813 21.6998 19.3154 21.6774 19.4495C21.655 19.606 21.5879 19.7177 21.4535 19.8072C21.2968 19.9189 21.1177 19.9636 20.8714 19.986C20.2221 20.0083 19.6176 19.8742 19.0579 19.5389L18.6549 19.3154C18.5877 19.2707 18.5206 19.2707 18.431 19.2707C18.2967 19.2707 18.1847 19.3377 18.1176 19.4272L17.5354 20.2095C17.4683 20.2989 17.4459 20.3883 17.4683 20.4778C17.4907 20.5672 17.5354 20.6566 17.625 20.7013C17.8041 20.8578 18.0056 20.9919 18.2295 21.1036C18.4982 21.2601 18.7892 21.3719 19.0803 21.4613C19.64 21.6178 20.1998 21.6848 20.7147 21.6625C21.5207 21.6178 22.2148 21.3719 22.7745 20.9025C23.3342 20.4331 23.6701 19.8295 23.7372 19.1142C23.8044 18.3766 23.6029 17.8624 23.1103 17.5718C22.8641 17.4154 22.6402 17.3036 22.4611 17.2365C22.2819 17.1695 21.9685 17.0801 21.5431 16.946C21.1177 16.8342 20.8043 16.7224 20.6251 16.633C20.4684 16.5436 20.4013 16.4318 20.4236 16.2754C20.446 15.9848 20.7595 15.8283 21.3192 15.7836C21.767 15.7612 22.2372 15.873 22.6626 16.0965C22.7521 16.1412 22.8641 16.2083 22.9536 16.2754C23.0656 16.3871 23.1551 16.4318 23.2447 16.4095Z" fill="black"/>
</svg>
